<?xml version="1.0" encoding="utf-8"?>
<!-- Generator: Adobe Illustrator 27.5.0, SVG Export Plug-In . SVG Version: 6.00 Build 0)  -->
<svg version="1.1" xmlns="http://www.w3.org/2000/svg" xmlns:xlink="http://www.w3.org/1999/xlink" x="0px" y="0px"
	 viewBox="0 0 500 500" style="enable-background:new 0 0 500 500;" xml:space="preserve">
<g id="Background_Complete">
	<g>
		<rect x="416.779" y="398.494" style="fill:#EBEBEB;" width="33.122" height="0.25"/>
		<rect x="322.527" y="401.208" style="fill:#EBEBEB;" width="8.693" height="0.25"/>
		<rect x="396.586" y="389.208" style="fill:#EBEBEB;" width="19.192" height="0.25"/>
		<rect x="52.459" y="390.888" style="fill:#EBEBEB;" width="43.193" height="0.25"/>
		<rect x="104.556" y="390.888" style="fill:#EBEBEB;" width="6.333" height="0.25"/>
		<rect x="131.471" y="395.111" style="fill:#EBEBEB;" width="93.676" height="0.25"/>
		<g>
			<path style="fill:#EBEBEB;" d="M238.401,337.8H45.302c-3.147,0-5.708-2.561-5.708-5.708V60.66c0-3.147,2.561-5.708,5.708-5.708
				h193.099c3.146,0,5.707,2.561,5.707,5.708v271.432C244.108,335.239,241.547,337.8,238.401,337.8z M45.302,55.203
				c-3.01,0-5.458,2.448-5.458,5.458v271.432c0,3.01,2.448,5.458,5.458,5.458h193.099c3.009,0,5.457-2.448,5.457-5.458V60.66
				c0-3.009-2.448-5.458-5.457-5.458H45.302z"/>
			<path style="fill:#EBEBEB;" d="M454.698,337.8H261.599c-3.146,0-5.707-2.561-5.707-5.708V60.66c0-3.147,2.561-5.708,5.707-5.708
				h193.099c3.148,0,5.708,2.561,5.708,5.708v271.432C460.406,335.239,457.845,337.8,454.698,337.8z M261.599,55.203
				c-3.009,0-5.457,2.448-5.457,5.458v271.432c0,3.01,2.448,5.458,5.457,5.458h193.099c3.01,0,5.458-2.448,5.458-5.458V60.66
				c0-3.009-2.448-5.458-5.458-5.458H261.599z"/>
		</g>
		<rect y="382.398" style="fill:#EBEBEB;" width="500" height="0.25"/>
	</g>
	<g>
		<g>
			
				<rect x="76.498" y="270.713" transform="matrix(-1 -1.224647e-16 1.224647e-16 -1 338.1242 641.057)" style="fill:#E6E6E6;" width="185.129" height="99.632"/>
			
				<rect x="246.785" y="374.481" transform="matrix(-1 -1.224647e-16 1.224647e-16 -1 505.2051 757.7535)" style="fill:#E6E6E6;" width="11.635" height="8.791"/>
			
				<rect x="62.365" y="263.301" transform="matrix(-1 -1.224647e-16 1.224647e-16 -1 136.3658 646.573)" style="fill:#E6E6E6;" width="11.635" height="119.972"/>
			<path style="fill:#F5F5F5;" d="M73.862,263.301v119.972h6.205v-6.723H258.42v6.723h6.206V263.301h-3.103h-3.103H80.067h-3.103
				H73.862z M80.067,274.16h86.074v41.669H80.067V274.16z M258.42,365.69h-86.074v-91.53h86.074V365.69z M80.067,365.69v-43.656
				h86.074v43.656H80.067z"/>
			
				<rect x="172.346" y="278.642" transform="matrix(-1 -1.224647e-16 1.224647e-16 -1 424.9489 644.3321)" style="fill:#F5F5F5;" width="80.256" height="87.048"/>
			<path style="fill:#FAFAFA;" d="M175.981,319.558c0,2.059,1.669,3.729,3.729,3.729c2.059,0,3.729-1.669,3.729-3.729
				s-1.669-3.729-3.729-3.729C177.65,315.829,175.981,317.499,175.981,319.558z"/>
			<path style="fill:#E0E0E0;" d="M179.709,323.286c1.504,0,2.792-0.895,3.381-2.177c0.218,0.474,0.347,0.996,0.347,1.551
				c0,2.059-1.669,3.729-3.729,3.729s-3.729-1.669-3.729-3.729c0-0.555,0.13-1.078,0.347-1.551
				C176.918,322.391,178.205,323.286,179.709,323.286z"/>
			<polygon style="fill:#FAFAFA;" points="221.477,365.69 202.33,365.69 193.181,278.642 212.328,278.642 			"/>
			<polygon style="fill:#FAFAFA;" points="197.426,365.69 193.615,365.69 184.466,278.642 188.277,278.642 			"/>
			
				<rect x="146.743" y="278.556" transform="matrix(-1 -1.224647e-16 1.224647e-16 -1 301.0698 594.3439)" style="fill:#FAFAFA;" width="7.584" height="37.232"/>
			
				<rect x="115.296" y="278.556" transform="matrix(-1 -1.224647e-16 1.224647e-16 -1 238.1764 594.3439)" style="fill:#F5F5F5;" width="7.584" height="37.232"/>
			
				<rect x="139.158" y="281.172" transform="matrix(-1 -1.224647e-16 1.224647e-16 -1 285.9009 596.9604)" style="fill:#F5F5F5;" width="7.584" height="34.616"/>
			
				<rect x="122.88" y="281.172" transform="matrix(-1 -1.224647e-16 1.224647e-16 -1 253.3453 596.9604)" style="fill:#FAFAFA;" width="7.584" height="34.616"/>
			
				<rect x="130.465" y="278.556" transform="matrix(-1 -1.224647e-16 1.224647e-16 -1 265.8309 594.3439)" style="fill:#EBEBEB;" width="4.901" height="37.232"/>
			
				<rect x="135.366" y="281.172" transform="matrix(-1 -1.224647e-16 1.224647e-16 -1 274.5242 596.9604)" style="fill:#FAFAFA;" width="3.792" height="34.616"/>
			
				<rect x="107.712" y="278.556" transform="matrix(-1 -1.224647e-16 1.224647e-16 -1 223.0076 594.3439)" style="fill:#EBEBEB;" width="7.584" height="37.232"/>
			
				<rect x="100.127" y="281.172" transform="matrix(-1 -1.224647e-16 1.224647e-16 -1 207.8388 596.9604)" style="fill:#E6E6E6;" width="7.584" height="34.616"/>
			
				<rect x="83.849" y="281.172" transform="matrix(-1 -1.224647e-16 1.224647e-16 -1 175.2832 596.9604)" style="fill:#E6E6E6;" width="7.584" height="34.616"/>
			
				<rect x="91.434" y="278.556" transform="matrix(-1 -1.224647e-16 1.224647e-16 -1 187.7688 594.3439)" style="fill:#FAFAFA;" width="4.901" height="37.232"/>
			
				<rect x="96.335" y="281.172" transform="matrix(-1 -1.224647e-16 1.224647e-16 -1 196.4622 596.9604)" style="fill:#EBEBEB;" width="3.792" height="34.616"/>
			
				<rect x="80.057" y="279.438" transform="matrix(-1 -1.224647e-16 1.224647e-16 -1 163.9066 595.2258)" style="fill:#EBEBEB;" width="3.792" height="36.351"/>
			<rect x="80.057" y="328.458" style="fill:#EBEBEB;" width="7.584" height="37.232"/>
			<rect x="111.504" y="328.458" style="fill:#FAFAFA;" width="7.584" height="37.232"/>
			<rect x="87.642" y="331.074" style="fill:#FAFAFA;" width="7.584" height="34.616"/>
			<rect x="103.919" y="331.074" style="fill:#EBEBEB;" width="7.584" height="34.616"/>
			<rect x="99.018" y="328.458" style="fill:#FAFAFA;" width="4.901" height="37.232"/>
			<rect x="95.226" y="331.074" style="fill:#F5F5F5;" width="3.792" height="34.616"/>
			<rect x="119.088" y="328.458" style="fill:#EBEBEB;" width="7.584" height="37.232"/>
			<rect x="126.673" y="331.074" style="fill:#F5F5F5;" width="7.584" height="34.616"/>
			<rect x="142.95" y="331.074" style="fill:#E6E6E6;" width="7.584" height="34.616"/>
			<rect x="138.049" y="328.458" style="fill:#FAFAFA;" width="4.901" height="37.232"/>
			<rect x="154.327" y="328.458" style="fill:#FAFAFA;" width="4.901" height="37.232"/>
			<rect x="134.257" y="331.074" style="fill:#EBEBEB;" width="3.792" height="34.616"/>
			<rect x="150.535" y="329.34" style="fill:#EBEBEB;" width="3.792" height="36.351"/>
		</g>
		<g>
			<rect x="358.172" y="200.704" style="fill:#F5F5F5;" width="60.392" height="60.392"/>
			<path style="fill:#EBEBEB;" d="M408.131,255.267h-39.526c-2.543,0-4.604-2.061-4.604-4.604v-39.526
				c0-2.543,2.061-4.604,4.604-4.604h39.526c2.543,0,4.604,2.061,4.604,4.604v39.526
				C412.735,253.206,410.674,255.267,408.131,255.267z"/>
			<path style="fill:#FAFAFA;" d="M378.313,219.533c0.351,1.657,1.828,2.911,3.586,2.911h12.94c1.758,0,3.235-1.254,3.586-2.911
				H378.313z"/>
			<rect x="358.172" y="261.096" style="fill:#FAFAFA;" width="60.392" height="60.392"/>
			<path style="fill:#EBEBEB;" d="M408.131,315.659h-39.526c-2.543,0-4.604-2.061-4.604-4.604v-39.526
				c0-2.543,2.061-4.604,4.604-4.604h39.526c2.543,0,4.604,2.061,4.604,4.604v39.526
				C412.735,313.598,410.674,315.659,408.131,315.659z"/>
			<path style="fill:#FAFAFA;" d="M378.313,279.925c0.351,1.657,1.828,2.911,3.586,2.911h12.94c1.758,0,3.235-1.254,3.586-2.911
				H378.313z"/>
			<rect x="358.172" y="321.488" style="fill:#F5F5F5;" width="60.392" height="60.392"/>
			<path style="fill:#EBEBEB;" d="M408.131,376.052h-39.526c-2.543,0-4.604-2.061-4.604-4.604v-39.526
				c0-2.543,2.061-4.604,4.604-4.604h39.526c2.543,0,4.604,2.061,4.604,4.604v39.526
				C412.735,373.99,410.674,376.052,408.131,376.052z"/>
			<path style="fill:#FAFAFA;" d="M378.313,340.317c0.351,1.657,1.828,2.911,3.586,2.911h12.94c1.758,0,3.235-1.254,3.586-2.911
				H378.313z"/>
			<path style="fill:#FAFAFA;" d="M378.313,224.533c0.351,1.657,1.828,2.911,3.586,2.911h12.94c1.758,0,3.235-1.254,3.586-2.911
				H378.313z"/>
			<path style="fill:#FAFAFA;" d="M378.313,284.925c0.351,1.657,1.828,2.911,3.586,2.911h12.94c1.758,0,3.235-1.254,3.586-2.911
				H378.313z"/>
			<path style="fill:#FAFAFA;" d="M378.313,345.317c0.351,1.657,1.828,2.911,3.586,2.911h12.94c1.758,0,3.235-1.254,3.586-2.911
				H378.313z"/>
			<path style="fill:#FAFAFA;" d="M378.313,229.533c0.351,1.657,1.828,2.911,3.586,2.911h12.94c1.758,0,3.235-1.254,3.586-2.911
				H378.313z"/>
			<path style="fill:#FAFAFA;" d="M378.313,289.925c0.351,1.657,1.828,2.911,3.586,2.911h12.94c1.758,0,3.235-1.254,3.586-2.911
				H378.313z"/>
			<path style="fill:#FAFAFA;" d="M378.313,350.317c0.351,1.657,1.828,2.911,3.586,2.911h12.94c1.758,0,3.235-1.254,3.586-2.911
				H378.313z"/>
			<rect x="418.564" y="200.912" style="fill:#F0F0F0;" width="12.399" height="180.969"/>
		</g>
		<path style="fill:#F5F5F5;" d="M377.372,142.975c-3.98,1.568-0.685-12.225-12.27-11.927c-11.585,0.298-12.624,9.84-12.624,9.84
			s-8.208-6.858-14.468-2.385c-6.26,4.473-2.526,6.262-7.673,6.262c-5.147,0-11.384-0.025-12.291,2.969
			c-0.907,2.994,76.322,3.864,76.322,0c0-3.864-3.876-2.969-6.262-2.969S387.212,139.099,377.372,142.975z"/>
		<path style="fill:#EBEBEB;" d="M400.457,128.928c-3.094,1.219-0.532-9.504-9.538-9.272c-9.006,0.232-9.814,7.649-9.814,7.649
			s-6.38-5.331-11.247-1.854c-4.866,3.477-1.964,4.868-5.965,4.868c-4.001,0-8.85-0.019-9.555,2.308
			c-0.705,2.327,59.33,3.004,59.33,0c0-3.004-3.013-2.308-4.868-2.308C406.947,130.319,408.106,125.915,400.457,128.928z"/>
		<path style="fill:#F0F0F0;" d="M133.061,113.644c6.673,2.629,1.148-20.497,20.571-19.997s21.166,16.498,21.166,16.498
			s13.761-11.498,24.257-4c10.496,7.499,4.235,10.499,12.865,10.499c8.63,0,19.086-0.041,20.607,4.979s-127.961,6.478-127.961,0
			c0-6.479,6.499-4.979,10.499-4.979C119.063,116.643,116.564,107.145,133.061,113.644z"/>
		<path style="fill:#F5F5F5;" d="M127.049,185.751c-3.98,1.568-0.685-12.225-12.27-11.927s-12.624,9.84-12.624,9.84
			s-8.208-6.858-14.468-2.385c-6.26,4.473-2.526,6.262-7.673,6.262c-5.147,0-11.384-0.024-12.291,2.97
			c-0.907,2.994,76.322,3.864,76.322,0c0-3.864-3.876-2.97-6.262-2.97C135.398,187.54,136.889,181.874,127.049,185.751z"/>
	</g>
</g>
<g id="Background_Simple" style="display:none;">
	<g style="display:inline;">
		<path style="fill:#407BFF;" d="M100.77,227.984c-1.603-34.104-32.483-78.477,5.925-105.434
			c51.295-36.002,99.144,19.265,147.108,21.471c36.639,1.685,84.127-73.8,135.68-42.368c51.605,31.463-10.527,101.058-6.675,134.344
			c3.811,32.933,75.807,77.108,34.126,121.313c-40.872,43.347-108.104-10.119-155.678-13.034
			C219.05,341.689,131.975,412.074,93,368.169C56.079,326.578,102.317,260.908,100.77,227.984z"/>
		<path style="opacity:0.9;fill:#FFFFFF;" d="M100.77,227.984c-1.603-34.104-32.483-78.477,5.925-105.434
			c51.295-36.002,99.144,19.265,147.108,21.471c36.639,1.685,84.127-73.8,135.68-42.368c51.605,31.463-10.527,101.058-6.675,134.344
			c3.811,32.933,75.807,77.108,34.126,121.313c-40.872,43.347-108.104-10.119-155.678-13.034
			C219.05,341.689,131.975,412.074,93,368.169C56.079,326.578,102.317,260.908,100.77,227.984z"/>
	</g>
</g>
<g id="Shadow">
	<ellipse id="_x3C_Path_x3E__1_" style="fill:#F5F5F5;" cx="250" cy="412.391" rx="193.889" ry="11.323"/>
</g>
<g id="Plants">
	<g>
		<path style="fill:#407BFF;" d="M303.243,394.49c-5.411-1.837-14.331-8.168-13.228-18.64c1.103-10.472,9.487,5.12,11.547,1.142
			c2.06-3.979-11.812-8.379-6.085-16.994s10.09,7.339,12.867,3.857c2.777-3.481-11.571-12.157-1.454-21.077
			c10.117-8.92,6.553,7.358,11.318,6.092s-2.503-8.529,4.545-14.414c7.048-5.885,13.434-0.979,9.344,5.408
			c-4.09,6.387,10.883-0.665,11.418,5.321c0.536,5.986-15.247,8.684-16.203,11.403c-0.956,2.719,14.414-2.977,14.277,0.834
			c-0.137,3.811-3.414,12.92-8.176,13.457c-4.762,0.537-12.893-2.467-13.997-0.292c-1.104,2.175,16.208,1.721,15.138,4.445
			c-1.069,2.724-5.35,10.27-8.516,9.943c-3.166-0.328-11.683-4.057-12.094-2.017c-0.411,2.04,15.066,2.883,12.977,5.128
			C324.832,390.33,320.328,400.293,303.243,394.49z"/>
		<path style="opacity:0.7;fill:#FFFFFF;" d="M303.243,394.49c-5.411-1.837-14.331-8.168-13.228-18.64
			c1.103-10.472,9.487,5.12,11.547,1.142c2.06-3.979-11.812-8.379-6.085-16.994s10.09,7.339,12.867,3.857
			c2.777-3.481-11.571-12.157-1.454-21.077c10.117-8.92,6.553,7.358,11.318,6.092s-2.503-8.529,4.545-14.414
			c7.048-5.885,13.434-0.979,9.344,5.408c-4.09,6.387,10.883-0.665,11.418,5.321c0.536,5.986-15.247,8.684-16.203,11.403
			c-0.956,2.719,14.414-2.977,14.277,0.834c-0.137,3.811-3.414,12.92-8.176,13.457c-4.762,0.537-12.893-2.467-13.997-0.292
			c-1.104,2.175,16.208,1.721,15.138,4.445c-1.069,2.724-5.35,10.27-8.516,9.943c-3.166-0.328-11.683-4.057-12.094-2.017
			c-0.411,2.04,15.066,2.883,12.977,5.128C324.832,390.33,320.328,400.293,303.243,394.49z"/>
	</g>
	<g>
		<path style="fill:#407BFF;" d="M315.526,393.01c-2.582-3.738-5.273-12.009,0.397-18.169c5.67-6.16,3.626,7.766,6.828,6.204
			s-3.565-10.949,4.175-13.731c7.741-2.783,2.96,9.468,6.383,8.563c3.423-0.905-1.62-13.245,9.067-14.141
			c10.687-0.896,0.693,7.803,4.334,9.255c3.641,1.452,2.447-6.63,9.736-7.044c7.289-0.414,9.038,5.746,3.399,7.883
			c-5.639,2.137,7.261,4.736,4.764,8.81c-2.497,4.074-13.849-1.688-15.748-0.406c-1.9,1.282,10.611,4.935,8.716,7.302
			c-1.895,2.367-8.306,6.626-11.599,4.711c-3.294-1.915-7.059-7.688-8.795-6.824s9.528,8.784,7.554,10.016
			c-1.974,1.231-8.285,4.018-10.15,2.307c-1.865-1.71-5.532-8.129-6.762-7.022c-1.229,1.107,8.248,8.984,5.85,9.426
			C331.277,400.592,323.678,404.815,315.526,393.01z"/>
		<path style="opacity:0.4;fill:#FFFFFF;" d="M315.526,393.01c-2.582-3.738-5.273-12.009,0.397-18.169
			c5.67-6.16,3.626,7.766,6.828,6.204s-3.565-10.949,4.175-13.731c7.741-2.783,2.96,9.468,6.383,8.563
			c3.423-0.905-1.62-13.245,9.067-14.141c10.687-0.896,0.693,7.803,4.334,9.255c3.641,1.452,2.447-6.63,9.736-7.044
			c7.289-0.414,9.038,5.746,3.399,7.883c-5.639,2.137,7.261,4.736,4.764,8.81c-2.497,4.074-13.849-1.688-15.748-0.406
			c-1.9,1.282,10.611,4.935,8.716,7.302c-1.895,2.367-8.306,6.626-11.599,4.711c-3.294-1.915-7.059-7.688-8.795-6.824
			s9.528,8.784,7.554,10.016c-1.974,1.231-8.285,4.018-10.15,2.307c-1.865-1.71-5.532-8.129-6.762-7.022
			c-1.229,1.107,8.248,8.984,5.85,9.426C331.277,400.592,323.678,404.815,315.526,393.01z"/>
	</g>
	<g>
		<g>
			<g>
				<path style="fill:#407BFF;" d="M177.514,391.618c-0.02,0.131,0.759,0.436-1.067,1.265c-4.496,2.042-12.707,5.011-17.428,2.084
					c-6.741-4.179,3.478-7.687,1.179-10.566s-11.957,4.148-15.948,0.325c-3.991-3.823,4.191-6.078,2.855-8.335
					c-1.337-2.258-8.271,4.18-12.981,0.319c-4.711-3.862,3.524-4.112,1.532-5.695c-1.992-1.583-14.548-6.448-11.638-9.846
					c2.91-3.398,15.07,2.064,18.274,1.877c3.204-0.187,0.307-9.205,5.197-7.776c4.89,1.429,7.816,15.627,12.8,15.518
					c3.712-0.082,0.037-4.106,4.08-5.533C169.859,363.316,179.143,381.125,177.514,391.618z"/>
			</g>
		</g>
		<g style="opacity:0.3;">
			<path style="fill:#FFFFFF;" d="M177.514,391.618c-0.02,0.131,0.759,0.436-1.067,1.265c-4.496,2.042-12.707,5.011-17.428,2.084
				c-6.741-4.179,3.478-7.687,1.179-10.566s-11.957,4.148-15.948,0.325c-3.991-3.823,4.191-6.078,2.855-8.335
				c-1.337-2.258-8.271,4.18-12.981,0.319c-4.711-3.862,3.524-4.112,1.532-5.695c-1.992-1.583-14.548-6.448-11.638-9.846
				c2.91-3.398,15.07,2.064,18.274,1.877c3.204-0.187,0.307-9.205,5.197-7.776c4.89,1.429,7.816,15.627,12.8,15.518
				c3.712-0.082,0.037-4.106,4.08-5.533C169.859,363.316,179.143,381.125,177.514,391.618z"/>
		</g>
		<g>
			<g>
				<g>
					<g>
						<g>
							<g>
								<g>
									<path style="fill:#407BFF;" d="M187.661,406.43c0.008-0.004,0.016-0.008,0.023-0.012c0.155-0.085,0.212-0.28,0.126-0.436
										c-16.136-29.231-38.877-34.596-39.105-34.647c-0.173-0.038-0.344,0.071-0.383,0.243c-0.039,0.173,0.07,0.344,0.243,0.383
										c0.225,0.05,22.694,5.368,38.682,34.33C187.33,406.44,187.51,406.498,187.661,406.43z"/>
								</g>
								<g>
									<path style="fill:#407BFF;" d="M154.455,373.984c0.119-0.053,0.198-0.177,0.189-0.315c-0.012-0.177-0.165-0.31-0.342-0.298
										c-0.125,0.008-3.098,0.236-7.049,2.893c-0.147,0.099-0.186,0.299-0.088,0.445c0.099,0.147,0.299,0.187,0.445,0.087
										c3.798-2.553,6.707-2.783,6.735-2.786C154.385,374.009,154.422,373.999,154.455,373.984z"/>
								</g>
								<g>
									<path style="fill:#407BFF;" d="M159.232,376.4c0.155-0.07,0.229-0.249,0.167-0.409
										c-3.652-9.335-11.96-14.432-12.044-14.482c-0.151-0.092-0.349-0.043-0.44,0.109c-0.092,0.152-0.043,0.349,0.109,0.44
										c0.082,0.049,8.207,5.041,11.778,14.167c0.065,0.165,0.251,0.246,0.416,0.182
										C159.222,376.405,159.227,376.402,159.232,376.4z"/>
								</g>
								<g>
									<path style="fill:#407BFF;" d="M167.675,382.146c0.074-0.033,0.135-0.094,0.167-0.176c0.065-0.165-0.016-0.351-0.181-0.416
										c-0.055-0.021-5.523-2.101-9.988,1.87c-0.132,0.118-0.144,0.321-0.026,0.453c0.117,0.132,0.321,0.145,0.453,0.027
										c4.174-3.714,9.276-1.772,9.327-1.752C167.51,382.185,167.599,382.18,167.675,382.146z"/>
								</g>
								<g>
									<path style="fill:#407BFF;" d="M172.643,386.525c0.109-0.049,0.186-0.158,0.189-0.286
										c0.005-0.229,0.074-5.689-3.683-11.917c-0.092-0.151-0.284-0.205-0.44-0.109c-0.152,0.091-0.201,0.288-0.109,0.44
										c3.656,6.059,3.593,11.518,3.591,11.572c-0.003,0.177,0.137,0.324,0.314,0.327
										C172.553,386.555,172.601,386.544,172.643,386.525z"/>
								</g>
							</g>
						</g>
					</g>
				</g>
			</g>
		</g>
	</g>
	<g>
		<g>
			<g>
				<path style="fill:#407BFF;" d="M185.373,381.541c-0.091,0.103,0.419,0.809-1.646,0.508c-5.087-0.741-13.949-2.759-16.439-7.979
					c-3.554-7.453,7.37-4.777,6.976-8.592c-0.394-3.815-12.807-3.093-14.152-8.687c-1.345-5.594,7.09-2.966,7.189-5.696
					s-9.596-0.991-11.551-7.023c-1.954-6.033,5.4-1.62,4.546-4.127c-0.855-2.507-9.116-13.832-4.656-15.172
					c4.461-1.34,12.039,10.285,14.951,11.924c2.911,1.639,5.447-7.89,8.927-3.888c3.48,4.002-1.944,18.086,2.483,20.793
					c3.297,2.016,2.343-3.576,6.687-2.552C194.589,352.443,192.703,373.265,185.373,381.541z"/>
			</g>
		</g>
		<g style="opacity:0.5;">
			<path style="fill:#FFFFFF;" d="M185.373,381.541c-0.091,0.103,0.419,0.809-1.646,0.508c-5.087-0.741-13.949-2.759-16.439-7.979
				c-3.554-7.453,7.37-4.777,6.976-8.592c-0.394-3.815-12.807-3.093-14.152-8.687c-1.345-5.594,7.09-2.966,7.189-5.696
				s-9.596-0.991-11.551-7.023c-1.954-6.033,5.4-1.62,4.546-4.127c-0.855-2.507-9.116-13.832-4.656-15.172
				c4.461-1.34,12.039,10.285,14.951,11.924c2.911,1.639,5.447-7.89,8.927-3.888c3.48,4.002-1.944,18.086,2.483,20.793
				c3.297,2.016,2.343-3.576,6.687-2.552C194.589,352.443,192.703,373.265,185.373,381.541z"/>
		</g>
		<g>
			<g>
				<g>
					<g>
						<g>
							<g>
								<g>
									<path style="fill:#407BFF;" d="M185.929,400.223c0.009,0.001,0.018,0.002,0.027,0.003c0.184,0.013,0.343-0.127,0.355-0.311
										c2.309-34.682-14.593-52.174-14.764-52.347c-0.13-0.131-0.341-0.132-0.472-0.002c-0.131,0.13-0.132,0.341-0.002,0.472
										c0.169,0.171,16.86,17.469,14.572,51.832C185.634,400.045,185.759,400.198,185.929,400.223z"/>
								</g>
								<g>
									<path style="fill:#407BFF;" d="M175.095,353.123c0.134,0.02,0.273-0.044,0.342-0.169c0.089-0.162,0.03-0.365-0.132-0.453
										c-0.114-0.063-2.846-1.536-7.802-1.431c-0.184,0.004-0.331,0.157-0.327,0.341c0.004,0.184,0.157,0.332,0.341,0.327
										c4.763-0.1,7.44,1.334,7.467,1.348C175.019,353.105,175.057,353.117,175.095,353.123z"/>
								</g>
								<g>
									<path style="fill:#407BFF;" d="M177.92,357.926c0.175,0.026,0.341-0.089,0.376-0.265
										c2.052-10.231-2.358-19.369-2.403-19.461c-0.081-0.165-0.282-0.234-0.447-0.152c-0.166,0.081-0.234,0.281-0.153,0.447
										c0.044,0.089,4.353,9.033,2.347,19.035c-0.036,0.181,0.081,0.357,0.262,0.393
										C177.909,357.924,177.914,357.925,177.92,357.926z"/>
								</g>
								<g>
									<path style="fill:#407BFF;" d="M182.083,367.709c0.083,0.012,0.171-0.006,0.245-0.06c0.149-0.108,0.183-0.316,0.075-0.466
										c-0.036-0.05-3.656-4.947-9.801-3.981c-0.182,0.029-0.307,0.2-0.278,0.382c0.029,0.182,0.199,0.307,0.382,0.278
										c5.745-0.905,9.123,3.666,9.156,3.712C181.917,367.65,181.997,367.696,182.083,367.709z"/>
								</g>
								<g>
									<path style="fill:#407BFF;" d="M183.971,374.339c0.123,0.018,0.252-0.034,0.326-0.144c0.133-0.198,3.265-4.942,3.477-12.51
										c0.005-0.184-0.133-0.34-0.325-0.343c-0.184-0.005-0.338,0.14-0.343,0.324c-0.206,7.364-3.332,12.11-3.364,12.157
										c-0.102,0.153-0.062,0.361,0.091,0.463C183.876,374.315,183.923,374.332,183.971,374.339z"/>
								</g>
							</g>
						</g>
					</g>
				</g>
			</g>
		</g>
	</g>
</g>
<g id="Book">
	<g>
		<path style="fill:#407BFF;" d="M115.319,288.563l1.533,17.524c0.158,1.802,1.747,3.264,3.549,3.264h106.611l-1.819-20.787H115.319
			z"/>
		<path style="opacity:0.2;" d="M115.319,288.563l1.533,17.524c0.158,1.802,1.747,3.264,3.549,3.264h106.611l-1.819-20.787H115.319z
			"/>
		<path style="fill:#407BFF;" d="M226.665,305.39H118.44c-0.91,0-1.713-0.738-1.793-1.648l-11.403-130.334
			c-0.08-0.91,0.594-1.648,1.504-1.648h108.226L226.665,305.39z"/>
		<path style="opacity:0.2;fill:#FFFFFF;" d="M226.665,305.39H118.44c-0.91,0-1.713-0.738-1.793-1.648l-11.403-130.334
			c-0.08-0.91,0.594-1.648,1.504-1.648h108.226L226.665,305.39z"/>
		<g>
			<path style="fill:#263238;" d="M131.503,302.421h-10.842c-0.641,0-1.205-0.519-1.261-1.16l-0.949-10.842
				c-0.143-1.64-1.589-2.97-3.229-2.97l0,0l1.284,14.678c0.158,1.802,1.747,3.263,3.549,3.263h14.678l0,0
				C134.589,303.75,133.143,302.421,131.503,302.421z"/>
			<path style="fill:#263238;" d="M105.385,175.023l1.284,14.678l0,0c1.64,0,2.853-1.33,2.71-2.97l-0.949-10.842
				c-0.056-0.641,0.418-1.16,1.059-1.16h10.842c1.64,0,2.853-1.33,2.71-2.97l0,0h-14.678
				C106.561,171.76,105.228,173.221,105.385,175.023z"/>
		</g>
		<g style="opacity:0.5;">
			<path style="fill:#FFFFFF;" d="M131.503,302.421h-10.842c-0.641,0-1.205-0.519-1.261-1.16l-0.949-10.842
				c-0.143-1.64-1.589-2.97-3.229-2.97l0,0l1.284,14.678c0.158,1.802,1.747,3.263,3.549,3.263h14.678l0,0
				C134.589,303.75,133.143,302.421,131.503,302.421z"/>
			<path style="fill:#FFFFFF;" d="M105.385,175.023l1.284,14.678l0,0c1.64,0,2.853-1.33,2.71-2.97l-0.949-10.842
				c-0.056-0.641,0.418-1.16,1.059-1.16h10.842c1.64,0,2.853-1.33,2.71-2.97l0,0h-14.678
				C106.561,171.76,105.228,173.221,105.385,175.023z"/>
		</g>
		<polygon style="fill:#407BFF;" points="119.149,284.108 120.507,299.636 226.162,299.636 224.804,284.108 		"/>
		<polygon style="opacity:0.5;fill:#FFFFFF;" points="119.149,284.108 120.507,299.636 226.162,299.636 224.804,284.108 		"/>
		<g>
			<path style="fill:#407BFF;" d="M214.974,171.76c-33.822-13.52-71.712-14.588-105.655,0l11.188,127.877
				c33.943-14.587,71.833-13.519,105.655,0L214.974,171.76z"/>
			<path style="opacity:0.8;fill:#FFFFFF;" d="M214.974,171.76c-33.822-13.52-71.712-14.588-105.655,0l11.188,127.877
				c33.943-14.587,71.833-13.519,105.655,0L214.974,171.76z"/>
		</g>
		<g style="opacity:0.2;">
			<g>
				<path d="M123.829,281.799L123.829,281.799c-0.38-0.829-0.034-1.762,0.773-2.06c12.849-4.753,26.404-7.461,40.339-8.058
					c0.881-0.038,1.69,0.665,1.795,1.549l0,0.001c0.102,0.864-0.508,1.578-1.368,1.615c-13.627,0.581-26.883,3.23-39.449,7.88
					C125.129,283.017,124.201,282.609,123.829,281.799z"/>
			</g>
			<g>
				<path d="M217.793,282.718c-13.972-4.851-28.311-7.519-42.671-7.938c-0.866-0.025-1.609-0.729-1.669-1.593l0-0.004
					c-0.062-0.883,0.613-1.594,1.498-1.568c14.685,0.431,29.349,3.159,43.637,8.118c0.858,0.298,1.366,1.228,1.131,2.056
					l-0.001,0.004C219.488,282.603,218.632,283.01,217.793,282.718z"/>
			</g>
			<g>
				<path d="M122.43,265.813l-0.001-0.001c-0.38-0.828-0.035-1.759,0.771-2.057c7.999-2.957,16.33-5.138,24.807-6.495
					c0.861-0.138,1.734,0.475,1.938,1.35l0.001,0.002c0.199,0.856-0.318,1.641-1.16,1.776c-8.292,1.325-16.441,3.459-24.267,6.353
					C123.73,267.033,122.802,266.624,122.43,265.813z"/>
			</g>
			<g>
				<path d="M191.021,260.395c-10.944-1.699-21.931-2.093-32.705-1.173c-0.854,0.073-1.665-0.549-1.823-1.409l0,0
					c-0.162-0.88,0.421-1.672,1.296-1.747c11.015-0.941,22.248-0.538,33.436,1.197c0.886,0.137,1.553,0.974,1.482,1.846l0,0.002
					C192.637,259.962,191.887,260.529,191.021,260.395z"/>
			</g>
			<g>
				<path d="M216.394,266.734c-5.212-1.808-10.53-3.325-15.848-4.527c-0.86-0.194-1.462-1.02-1.352-1.866l0,0
					c0.113-0.863,0.923-1.416,1.8-1.218c5.436,1.227,10.87,2.779,16.197,4.626c0.857,0.297,1.364,1.226,1.13,2.054l0,0.001
					C218.091,266.615,217.235,267.025,216.394,266.734z"/>
			</g>
			<g>
				<path d="M121.031,249.828L121.031,249.828c-0.38-0.829-0.033-1.76,0.772-2.058c16.996-6.29,35.019-8.98,53.623-7.989
					c0.886,0.047,1.63,0.817,1.65,1.698l0,0c0.019,0.863-0.663,1.51-1.531,1.464c-18.182-0.961-35.806,1.658-52.423,7.811
					C122.334,251.047,121.403,250.639,121.031,249.828z"/>
			</g>
			<g>
				<path d="M214.995,250.749c-9.266-3.215-18.78-5.488-28.328-6.767c-0.868-0.116-1.539-0.89-1.508-1.749l0-0.001
					c0.032-0.877,0.783-1.507,1.669-1.388c9.763,1.309,19.49,3.633,28.964,6.919c0.858,0.298,1.366,1.228,1.131,2.056l0,0.001
					C216.692,250.631,215.835,251.04,214.995,250.749z"/>
			</g>
			<g>
				<path d="M119.633,233.844L119.633,233.844c-0.38-0.829-0.034-1.761,0.772-2.06c11.148-4.123,22.864-6.715,34.873-7.714
					c0.875-0.073,1.708,0.599,1.848,1.481l0,0c0.137,0.863-0.442,1.603-1.297,1.674c-11.744,0.976-23.203,3.511-34.107,7.546
					C120.934,235.063,120.005,234.655,119.633,233.844z"/>
			</g>
			<g>
				<path d="M213.596,234.764c-15.464-5.367-31.337-8.026-47.165-7.992c-0.864,0.002-1.628-0.681-1.716-1.544l-0.001-0.007
					c-0.091-0.882,0.557-1.618,1.439-1.623c16.201-0.101,32.423,2.688,48.238,8.18c0.858,0.298,1.368,1.23,1.133,2.058l0,0.001
					C215.293,234.647,214.436,235.055,213.596,234.764z"/>
			</g>
			<g>
				<path d="M118.234,217.857L118.234,217.857c-0.38-0.828-0.035-1.758,0.77-2.055c6.152-2.274,12.514-4.094,18.954-5.424
					c0.85-0.176,1.745,0.4,1.986,1.268l0,0.001c0.237,0.851-0.244,1.663-1.078,1.835c-6.3,1.299-12.524,3.08-18.541,5.305
					C119.535,219.078,118.606,218.669,118.234,217.857z"/>
			</g>
			<g>
				<path d="M145.75,210.659l0-0.001c-0.204-0.876,0.338-1.699,1.204-1.816c11.092-1.501,22.464-1.624,33.849-0.362
					c0.888,0.098,1.59,0.908,1.559,1.786l0,0c-0.031,0.858-0.752,1.46-1.619,1.363c-11.135-1.236-22.257-1.118-33.109,0.355
					C146.787,212.1,145.949,211.515,145.75,210.659z"/>
			</g>
			<g>
				<path d="M212.201,218.78c-7.658-2.656-15.506-4.675-23.374-6.014c-0.865-0.147-1.508-0.94-1.445-1.794l0-0.004
					c0.064-0.872,0.839-1.472,1.723-1.322c8.043,1.369,16.065,3.434,23.891,6.148c0.857,0.297,1.365,1.227,1.13,2.055l-0.001,0.003
					C213.895,218.663,213.04,219.072,212.201,218.78z"/>
			</g>
			<g>
				<path d="M116.837,201.877L116.837,201.877c-0.38-0.829-0.034-1.761,0.772-2.06c12.64-4.678,25.971-7.376,39.672-8.031
					c0.88-0.042,1.692,0.657,1.801,1.541l0,0.001c0.107,0.864-0.5,1.581-1.36,1.622c-13.398,0.637-26.435,3.276-38.796,7.853
					C118.137,203.095,117.208,202.688,116.837,201.877z"/>
			</g>
			<g>
				<path d="M210.797,202.794c-14.157-4.914-28.686-7.587-43.235-7.953c-0.867-0.022-1.616-0.726-1.679-1.592l0,0
					c-0.065-0.883,0.606-1.596,1.491-1.574c14.881,0.374,29.742,3.108,44.222,8.134c0.858,0.298,1.367,1.228,1.132,2.056l0,0
					C212.497,202.677,211.638,203.086,210.797,202.794z"/>
			</g>
			<g>
				<path d="M115.438,185.892l-0.001-0.001c-0.38-0.829-0.035-1.76,0.771-2.058c8.411-3.112,17.197-5.364,26.16-6.705
					c0.863-0.129,1.733,0.492,1.928,1.369l0,0.002c0.191,0.856-0.334,1.636-1.178,1.762c-8.768,1.31-17.363,3.513-25.593,6.559
					C116.737,187.111,115.81,186.703,115.438,185.892z"/>
			</g>
			<g>
				<path d="M183.401,180.375c-10.204-1.54-20.464-1.941-30.542-1.199c-0.857,0.063-1.662-0.568-1.811-1.43v0
					c-0.152-0.881,0.44-1.665,1.316-1.729c10.307-0.758,20.796-0.348,31.229,1.226c0.885,0.133,1.555,0.966,1.488,1.838l0,0
					C185.015,179.935,184.267,180.506,183.401,180.375z"/>
			</g>
			<g>
				<path d="M209.404,186.813c-5.814-2.018-11.756-3.674-17.707-4.934c-0.861-0.182-1.473-0.999-1.374-1.847l0-0.002
					c0.101-0.866,0.904-1.432,1.784-1.246c6.079,1.288,12.15,2.981,18.091,5.042c0.858,0.298,1.365,1.229,1.13,2.058l0,0.001
					C211.098,186.695,210.243,187.104,209.404,186.813z"/>
			</g>
		</g>
		<path style="fill:#407BFF;" d="M335.068,288.563l1.533,17.524c0.158,1.802-1.176,3.264-2.978,3.264H227.012l-1.819-20.787H335.068
			z"/>
		<path style="opacity:0.2;" d="M335.068,288.563l1.533,17.524c0.158,1.802-1.176,3.264-2.978,3.264H227.012l-1.819-20.787H335.068z
			"/>
		<path style="fill:#407BFF;" d="M226.666,305.39h108.226c0.91,0,1.584-0.738,1.504-1.648l-11.403-130.334
			c-0.08-0.91-0.882-1.648-1.793-1.648H214.975L226.666,305.39z"/>
		<path style="opacity:0.2;fill:#FFFFFF;" d="M226.666,305.39h108.226c0.91,0,1.584-0.738,1.504-1.648l-11.403-130.334
			c-0.08-0.91-0.882-1.648-1.793-1.648H214.975L226.666,305.39z"/>
		<g>
			<path style="fill:#263238;" d="M321.309,302.421h10.842c0.641,0,1.115-0.519,1.059-1.16l-0.949-10.842
				c-0.143-1.64,1.07-2.97,2.71-2.97l0,0l1.284,14.678c0.158,1.802-1.176,3.263-2.978,3.263h-14.678l0,0
				C318.455,303.75,319.668,302.421,321.309,302.421z"/>
			<path style="fill:#263238;" d="M325.134,175.023l1.284,14.678l0,0c-1.64,0-3.086-1.33-3.229-2.97l-0.949-10.842
				c-0.056-0.641-0.621-1.16-1.261-1.16h-10.842c-1.64,0-3.086-1.33-3.229-2.97l0,0h14.678
				C323.388,171.76,324.977,173.221,325.134,175.023z"/>
		</g>
		<g style="opacity:0.5;">
			<path style="fill:#FFFFFF;" d="M321.309,302.421h10.842c0.641,0,1.115-0.519,1.059-1.16l-0.949-10.842
				c-0.143-1.64,1.07-2.97,2.71-2.97l0,0l1.284,14.678c0.158,1.802-1.176,3.263-2.978,3.263h-14.678l0,0
				C318.455,303.75,319.668,302.421,321.309,302.421z"/>
			<path style="fill:#FFFFFF;" d="M325.134,175.023l1.284,14.678l0,0c-1.64,0-3.086-1.33-3.229-2.97l-0.949-10.842
				c-0.056-0.641-0.621-1.16-1.261-1.16h-10.842c-1.64,0-3.086-1.33-3.229-2.97l0,0h14.678
				C323.388,171.76,324.977,173.221,325.134,175.023z"/>
		</g>
		<polygon style="fill:#407BFF;" points="330.458,284.108 331.817,299.636 226.162,299.636 224.804,284.108 		"/>
		<polygon style="opacity:0.4;fill:#FFFFFF;" points="330.458,284.108 331.817,299.636 226.162,299.636 224.804,284.108 		"/>
		<g>
			<path style="fill:#407BFF;" d="M214.975,171.76c31.456-13.52,69.16-14.588,105.655,0l11.188,127.877
				c-36.495-14.587-74.198-13.519-105.655,0L214.975,171.76z"/>
			<path style="opacity:0.7;fill:#FFFFFF;" d="M214.975,171.76c31.456-13.52,69.16-14.588,105.655,0l11.188,127.877
				c-36.495-14.587-74.198-13.519-105.655,0L214.975,171.76z"/>
		</g>
		<g style="opacity:0.2;">
			<g>
				<path d="M325.374,281.799L325.374,281.799c0.235-0.829-0.275-1.762-1.134-2.06c-13.681-4.753-27.709-7.461-41.748-8.058
					c-0.887-0.038-1.573,0.665-1.524,1.549v0.001c0.049,0.864,0.784,1.578,1.651,1.615c13.729,0.581,27.449,3.23,40.828,7.88
					C324.287,283.017,325.144,282.609,325.374,281.799z"/>
			</g>
			<g>
				<path d="M231.571,282.718c13.123-4.851,26.996-7.519,41.281-7.938c0.862-0.025,1.482-0.729,1.391-1.593l0-0.004
					c-0.093-0.883-0.892-1.594-1.772-1.568c-14.609,0.431-28.796,3.159-42.217,8.118c-0.806,0.298-1.151,1.228-0.772,2.056
					l0.002,0.004C229.855,282.603,230.783,283.01,231.571,282.718z"/>
			</g>
			<g>
				<path d="M323.976,265.813l0-0.001c0.235-0.828-0.273-1.759-1.131-2.057c-8.516-2.957-17.229-5.138-25.944-6.495
					c-0.885-0.138-1.651,0.475-1.702,1.35l0,0.002c-0.05,0.856,0.605,1.641,1.471,1.776c8.524,1.325,17.046,3.459,25.379,6.353
					C322.889,267.033,323.746,266.624,323.976,265.813z"/>
			</g>
			<g>
				<path d="M254.436,260.395c10.647-1.699,21.565-2.093,32.5-1.173c0.867,0.073,1.569-0.549,1.577-1.409l0,0
					c0.008-0.88-0.714-1.672-1.601-1.747c-11.18-0.941-22.342-0.538-33.226,1.197c-0.861,0.137-1.383,0.974-1.159,1.846l0.001,0.002
					C252.746,259.962,253.595,260.529,254.436,260.395z"/>
			</g>
			<g>
				<path d="M230.173,266.734c4.896-1.808,9.948-3.325,15.056-4.527c0.826-0.194,1.283-1.02,1.025-1.866l0,0
					c-0.264-0.863-1.17-1.416-2.014-1.218c-5.221,1.227-10.384,2.779-15.387,4.626c-0.805,0.297-1.149,1.226-0.77,2.054l0,0.001
					C228.455,266.615,229.383,267.025,230.173,266.734z"/>
			</g>
			<g>
				<path d="M322.578,249.828L322.578,249.828c0.235-0.829-0.275-1.76-1.132-2.058c-18.096-6.29-36.59-8.98-55.021-7.989
					c-0.878,0.047-1.487,0.817-1.353,1.698l0,0c0.132,0.863,0.928,1.51,1.787,1.464c18.014-0.961,36.097,1.658,53.79,7.811
					C321.488,251.047,322.348,250.639,322.578,249.828z"/>
			</g>
			<g>
				<path d="M228.775,250.749c8.703-3.215,17.82-5.488,27.144-6.767c0.847-0.116,1.384-0.89,1.202-1.749l0-0.001
					c-0.185-0.877-1.047-1.507-1.912-1.388c-9.534,1.309-18.855,3.633-27.753,6.919c-0.806,0.298-1.151,1.228-0.771,2.056l0,0.001
					C227.057,250.631,227.986,251.04,228.775,250.749z"/>
			</g>
			<g>
				<path d="M321.179,233.844L321.179,233.844c0.235-0.829-0.274-1.761-1.133-2.06c-11.87-4.123-24.039-6.715-36.223-7.714
					c-0.888-0.073-1.603,0.599-1.588,1.481l0,0c0.014,0.863,0.722,1.603,1.59,1.674c11.915,0.976,23.817,3.511,35.427,7.546
					C320.092,235.063,320.949,234.655,321.179,233.844z"/>
			</g>
			<g>
				<path d="M227.377,234.764c14.525-5.367,29.933-8.026,45.766-7.992c0.864,0.002,1.509-0.681,1.446-1.544l0-0.007
					c-0.064-0.882-0.84-1.618-1.723-1.623c-16.219-0.101-31.953,2.688-46.806,8.18c-0.806,0.298-1.153,1.23-0.773,2.058l0.001,0.001
					C225.659,234.647,226.588,235.055,227.377,234.764z"/>
			</g>
			<g>
				<path d="M319.781,217.857L319.781,217.857c0.235-0.828-0.272-1.758-1.129-2.055c-6.55-2.274-13.23-4.094-19.904-5.424
					c-0.881-0.176-1.674,0.4-1.764,1.268l0,0.001c-0.088,0.851,0.535,1.663,1.399,1.835c6.528,1.299,13.063,3.08,19.469,5.305
					C318.693,219.078,319.551,218.669,319.781,217.857z"/>
			</g>
			<g>
				<path d="M291.005,210.659v-0.001c0.051-0.876-0.635-1.699-1.522-1.816c-11.355-1.501-22.748-1.624-33.912-0.362
					c-0.871,0.098-1.431,0.908-1.246,1.786l0,0c0.181,0.858,1.007,1.46,1.858,1.363c10.919-1.236,22.061-1.118,33.171,0.355
					C290.221,212.1,290.956,211.515,291.005,210.659z"/>
			</g>
			<g>
				<path d="M225.975,218.78c7.193-2.656,14.687-4.675,22.322-6.014c0.839-0.147,1.343-0.94,1.131-1.794l-0.001-0.004
					c-0.216-0.872-1.097-1.472-1.954-1.322c-7.804,1.369-15.464,3.434-22.815,6.148c-0.805,0.297-1.15,1.227-0.771,2.055
					l0.001,0.003C224.26,218.663,225.187,219.072,225.975,218.78z"/>
			</g>
			<g>
				<path d="M318.382,201.877L318.382,201.877c0.235-0.829-0.274-1.761-1.133-2.06c-13.458-4.678-27.261-7.376-41.077-8.031
					c-0.887-0.042-1.577,0.657-1.531,1.541l0,0.001c0.044,0.864,0.776,1.581,1.644,1.622c13.51,0.637,27.008,3.276,40.17,7.853
					C317.295,203.095,318.152,202.688,318.382,201.877z"/>
			</g>
			<g>
				<path d="M224.582,202.794c13.297-4.914,27.359-7.587,41.844-7.953c0.864-0.022,1.489-0.726,1.401-1.592l0,0
					c-0.09-0.883-0.886-1.596-1.767-1.574c-14.815,0.374-29.198,3.108-42.798,8.134c-0.806,0.298-1.152,1.228-0.772,2.056l0,0
					C222.862,202.677,223.792,203.086,224.582,202.794z"/>
			</g>
			<g>
				<path d="M316.984,185.892l0-0.001c0.235-0.829-0.273-1.76-1.131-2.058c-8.956-3.112-18.135-5.364-27.333-6.705
					c-0.886-0.129-1.647,0.492-1.689,1.369l0,0.002c-0.041,0.856,0.621,1.636,1.487,1.762c8.997,1.31,17.978,3.513,26.741,6.559
					C315.897,187.111,316.754,186.703,316.984,185.892z"/>
			</g>
			<g>
				<path d="M248.055,180.375c9.934-1.54,20.124-1.941,30.333-1.199c0.868,0.063,1.562-0.568,1.56-1.43v0
					c-0.002-0.881-0.731-1.665-1.618-1.729c-10.44-0.758-20.857-0.348-31.015,1.226c-0.862,0.133-1.386,0.966-1.166,1.838l0,0
					C246.365,179.935,247.212,180.506,248.055,180.375z"/>
			</g>
			<g>
				<path d="M223.179,186.813c5.461-2.018,11.113-3.674,16.844-4.934c0.829-0.182,1.298-0.999,1.051-1.847l-0.001-0.002
					c-0.252-0.866-1.154-1.432-2.002-1.246c-5.854,1.288-11.629,2.981-17.209,5.042c-0.806,0.298-1.15,1.229-0.77,2.058l0.001,0.001
					C221.464,186.695,222.391,187.104,223.179,186.813z"/>
			</g>
		</g>
	</g>
</g>
<g id="Character">
	<g>
		<polygon style="fill:#7F3E3B;" points="282.362,264.683 276.37,272.508 272.646,268.077 279.174,261.597 		"/>
		<path style="fill:#407BFF;" d="M247.477,265.363c-1.411-4.262-3.39-15.201,0.604-19.395c3.994-4.194,7.105,5.087,9.283,12.287
			c2.177,7.201,3.796,17.031,7.369,14.905c3.573-2.126,9.265-7.505,9.265-7.505l4.714,5.479c0,0-12.091,17.416-18.183,13.788
			C254.438,281.297,249.267,270.768,247.477,265.363z"/>
		<path style="opacity:0.7;fill:#FFFFFF;" d="M272.465,267.062l4.873,5.945c0.86-1.132,1.374-1.871,1.374-1.871l-4.714-5.479
			C273.998,265.656,273.395,266.226,272.465,267.062z"/>
		<path style="opacity:0.2;" d="M250.71,272.818c1.747,3.341,3.976,6.816,6.48,9.387c0.675-9.153-0.026-20.616-0.026-20.616
			l-4.366-1.601l-1.714,1.071L250.71,272.818z"/>
		<polygon style="fill:#7F3E3B;" points="300.99,384.534 305.29,404.522 312.007,402.212 311.219,383.3 		"/>
		<path style="fill:#263238;" d="M238.061,300.61c0,0,8.902,0.364,18.827-2.451l6.528,13.258c0,0,39.571-7.107,44.621,5.093
			c4.305,10.401,4.478,74.527,4.478,74.527l-10.978,1.351c0,0-12.065-46.707-12.015-62.165c0.004-1.218-1.376-1.926-2.338-1.179
			c-6.091,4.733-22.272,14.962-46.77,13.383c-3.794-0.245-8.223-1.065-7.097-13.448C234.444,316.595,238.061,300.61,238.061,300.61z
			"/>
		<path style="opacity:0.2;" d="M259.998,335.821c10.858-4.816,25.923-17.987,32.887-22.884c2.001-1.407,3.824-2.145,5.416-2.502
			c-6.045-1.309-13.777-1.233-20.434-0.752l-15.801,6.979l-25.37,11.303l-3.13,8.962c1.09,4.827,4.128,5.324,6.849,5.5
			c11.354,0.732,20.895-1.083,28.499-3.701C267.654,338.843,249.513,340.471,259.998,335.821z"/>
		<polygon style="fill:#7F3E3B;" points="335.665,347.902 349.249,361.627 354.511,357.467 344.054,341.733 		"/>
		<g>
			<path style="fill:#263238;" d="M353.539,355.593l-6.117,4.684c-0.265,0.203-0.354,0.562-0.214,0.865l3.105,6.693
				c0.271,0.596,0.974,0.859,1.569,0.588c0.077-0.035,0.149-0.077,0.216-0.128c2.501-1.983,4.648-3.846,7.807-6.256
				c3.725-2.848,3.121-1.679,7.547-4.967c2.664-1.983,0.853-5.351-0.378-4.643c-5.612,3.272-8.241,2.829-11.617,2.507
				C354.76,354.913,354.077,355.146,353.539,355.593z"/>
		</g>
		<path style="fill:#263238;" d="M247.634,299.82c-16.771,2.769-26.753,0.165-26.753,0.165s-11.952,42.951,14.416,42.771
			c11.682-0.08,16.538-4.662,24.128-9.117c17.284-10.145,31.549-25.165,38.226-24.197c9.609,1.393,4.166,12.8,43.338,44.694
			l8.13-7.143c0,0-33.855-60.785-51.625-60.664c-17.127,0.117-44.679,21.633-48.296,21.657
			C245.58,308.012,247.634,299.82,247.634,299.82z"/>
		<path style="opacity:0.2;" d="M303.005,311.913l-0.012,0.006c2.402,1.082,4.206,2.566,5.045,4.592
			c0.507,1.223,0.955,3.19,1.353,5.708c1.11,1.602,2.414,3.381,3.966,5.342C312.339,314.677,303.005,311.913,303.005,311.913z"/>
		<g>
			<path style="fill:#263238;" d="M311.899,400.409l-7.69,0.458c-0.333,0.02-0.608,0.268-0.662,0.597l-1.172,7.284
				c-0.109,0.646,0.326,1.257,0.972,1.365c0.083,0.014,0.167,0.019,0.251,0.015c3.182-0.244,6.005-0.586,9.972-0.815
				c4.681-0.275,3.526,0.355,9.034,0.107c3.318-0.152,3.702-3.957,2.285-4.059c-6.482-0.429-8.412-2.268-11.031-4.424
				C313.291,400.528,312.594,400.339,311.899,400.409z"/>
		</g>
		<path style="fill:#407BFF;" d="M220.52,300.962c0,0,22.992,4.363,38.243,0.562c0,0-4.02-5.958-3.607-17.314
			c0.405-11.125,6.314-24.105-3.66-38.38c-0.394-0.564-1.054-0.895-1.751-0.895c-5.909-0.001-33.451,0.25-34.275,5.016
			C214.419,256.03,225.227,269.9,220.52,300.962z"/>
		<path style="opacity:0.2;" d="M224.622,271.612c-1.82-10.659-5.596-19.678-5.596-19.678l-0.551,4.256l-1.434,1.763
			c2.262,7.281,5.874,18.694,4.263,36.491c6.069-1.265,13.863-10.028,13.863-10.028l-2.837-7.656
			C228.28,278.579,225.607,277.384,224.622,271.612z"/>
		<polygon style="fill:#7F3E3B;" points="245.578,273.931 238.448,280.736 235.455,275.783 242.906,270.39 		"/>
		<path style="fill:#407BFF;" d="M211.151,268.871c-0.735-4.428-0.999-15.542,3.596-19.068s6.233,6.124,7.271,13.575
			c1.037,7.451,1.117,17.413,4.975,15.865c3.859-1.548,10.314-5.981,10.314-5.981l3.81,6.142c0,0-14.639,15.336-20.096,10.811
			C215.563,285.689,212.083,274.488,211.151,268.871z"/>
		<path style="opacity:0.7;fill:#FFFFFF;" d="M235.672,274.351l3.883,6.607c0.974-0.939,1.562-1.554,1.562-1.554l-3.81-6.142
			C237.307,273.262,236.667,273.701,235.672,274.351z"/>
		<g>
			<g>
				<g>
					<g>
						<path style="fill:#407BFF;" d="M185.77,404.241V376.85c-3.375,0-3.381-5.245,0-5.245c10.439,0,20.885-0.071,31.332-0.133
							v38.014c-10.444,0-20.888,0-31.332,0C182.395,409.486,182.389,404.241,185.77,404.241z"/>
						<path style="opacity:0.2;fill:#FFFFFF;" d="M185.77,404.241V376.85c-3.375,0-3.381-5.245,0-5.245
							c10.439,0,20.885-0.071,31.332-0.133v38.014c-10.444,0-20.888,0-31.332,0C182.395,409.486,182.389,404.241,185.77,404.241z"/>
					</g>
					<rect x="185.77" y="376.85" style="fill:#407BFF;" width="24.339" height="27.353"/>
					<rect x="185.77" y="376.85" style="opacity:0.7;fill:#FFFFFF;" width="24.339" height="27.353"/>
				</g>
				<path style="fill:#407BFF;" d="M205.002,406.863h84.379c5.8,0,10.503-7.306,10.503-16.318c0-9.012-4.702-16.318-10.503-16.318
					h-84.379V406.863z"/>
				<path style="opacity:0.9;fill:#FFFFFF;" d="M205.002,406.863h84.379c5.8,0,10.503-7.306,10.503-16.318
					c0-9.012-4.702-16.318-10.503-16.318h-84.379V406.863z"/>
				<g>
					<g>
						<path style="fill:#407BFF;" d="M205.002,371.605c27.625,0,55.295-0.499,82.915,0c18.92,0.342,19.938,36.608,1.38,37.881
							c-12.936,0.888-26.243,0-39.204,0c-15.03,0-30.06,0-45.09,0c-3.375,0-3.38-5.245,0-5.245c26.183,0,52.366,0,78.549,0
							c6.06,0,10.394-0.068,12.736-7.217c2.027-6.185,1.388-18.808-6.906-20.175c-0.894-0.147-1.946,0-2.843,0
							c-14.275,0-28.551,0-42.826,0c-12.903,0-25.806,0-38.71,0C201.627,376.85,201.621,371.605,205.002,371.605L205.002,371.605z"
							/>
					</g>
					<g style="opacity:0.3;">
						<path d="M205.002,371.605c27.625,0,55.295-0.499,82.915,0c18.92,0.342,19.938,36.608,1.38,37.881
							c-12.936,0.888-26.243,0-39.204,0c-15.03,0-30.06,0-45.09,0c-3.375,0-3.38-5.245,0-5.245c26.183,0,52.366,0,78.549,0
							c6.06,0,10.394-0.068,12.736-7.217c2.027-6.185,1.388-18.808-6.906-20.175c-0.894-0.147-1.946,0-2.843,0
							c-14.275,0-28.551,0-42.826,0c-12.903,0-25.806,0-38.71,0C201.627,376.85,201.621,371.605,205.002,371.605L205.002,371.605z"
							/>
					</g>
				</g>
			</g>
			<path style="fill:#407BFF;" d="M277.588,390.479c0,0,8.654,3.93,8.769,21.346l-3.425-2.502l-3.458,2.526
				c-0.107-17.437-8.77-21.37-8.77-21.37H277.588z"/>
		</g>
		<g>
			<g>
				<g>
					<g>
						<path style="fill:#407BFF;" d="M285.058,367.206v-21.211c2.614,0,2.618-4.062,0-4.062c-8.084,0-16.173-0.055-24.263-0.103
							v29.438c8.088,0,16.175,0,24.263,0C287.672,371.268,287.676,367.206,285.058,367.206z"/>
						<path style="opacity:0.3;fill:#FFFFFF;" d="M285.058,367.206v-21.211c2.614,0,2.618-4.062,0-4.062
							c-8.084,0-16.173-0.055-24.263-0.103v29.438c8.088,0,16.175,0,24.263,0C287.672,371.268,287.676,367.206,285.058,367.206z"/>
					</g>
					<rect x="266.211" y="345.995" style="fill:#407BFF;" width="18.848" height="21.181"/>
					<rect x="266.211" y="345.995" style="opacity:0.7;fill:#FFFFFF;" width="18.848" height="21.181"/>
				</g>
				<path style="fill:#407BFF;" d="M270.165,369.237h-65.341c-4.492,0-8.133-5.658-8.133-12.637c0-6.979,3.641-12.636,8.133-12.636
					h65.341V369.237z"/>
				<path style="opacity:0.9;fill:#FFFFFF;" d="M270.165,369.237h-65.341c-4.492,0-8.133-5.658-8.133-12.637
					c0-6.979,3.641-12.636,8.133-12.636h65.341V369.237z"/>
				<g>
					<g>
						<path style="fill:#407BFF;" d="M270.165,341.934c-21.392,0-42.82-0.386-64.208,0c-14.651,0.264-15.439,28.349-1.068,29.335
							c10.018,0.687,20.322,0,30.359,0c11.639,0,23.278,0,34.917,0c2.613,0,2.618-4.062,0-4.062c-20.276,0-40.551,0-60.827,0
							c-4.693,0-8.049-0.052-9.863-5.588c-1.569-4.79-1.075-14.565,5.348-15.623c0.692-0.114,1.507,0,2.202,0
							c11.054,0,22.109,0,33.164,0c9.992,0,19.984,0,29.976,0C272.779,345.995,272.783,341.934,270.165,341.934L270.165,341.934z"/>
					</g>
				</g>
			</g>
			<path style="fill:#407BFF;" d="M213.519,353.136c0,0-7.343,3.335-7.44,18.111l2.906-2.123l2.934,2.143
				c0.091-14.794,7.441-18.132,7.441-18.132H213.519z"/>
			<path style="opacity:0.5;fill:#FFFFFF;" d="M213.519,353.136c0,0-7.343,3.335-7.44,18.111l2.906-2.123l2.934,2.143
				c0.091-14.794,7.441-18.132,7.441-18.132H213.519z"/>
		</g>
		<g>
			<g>
				<g>
					<path style="fill:#407BFF;" d="M242.353,220.981h-1.037c0-3.067,0.959-4.434,3.109-4.434v1.037
						C243.6,217.583,242.353,217.583,242.353,220.981z"/>
				</g>
				<path style="fill:#407BFF;" d="M249.637,225.834c0,3.471-0.843,6.284-4.511,6.284c-3.668,0-4.511-2.814-4.511-6.284
					c0-3.471,0.843-6.284,4.511-6.284C248.794,219.55,249.637,222.364,249.637,225.834z"/>
				<path style="opacity:0.2;" d="M249.637,225.834c0,3.471-0.843,6.284-4.511,6.284c-3.668,0-4.511-2.814-4.511-6.284
					c0-3.471,0.843-6.284,4.511-6.284C248.794,219.55,249.637,222.364,249.637,225.834z"/>
				<path style="fill:#407BFF;" d="M248.054,225.834c0,3.471-0.843,6.284-4.511,6.284c-3.668,0-4.511-2.814-4.511-6.284
					c0-3.471,0.843-6.284,4.511-6.284C247.211,219.55,248.054,222.364,248.054,225.834z"/>
				<path style="opacity:0.6;" d="M243.544,220.587c-1.804,0-3.474,0.636-3.474,5.248c0,4.611,1.67,5.247,3.474,5.247
					c1.804,0,3.474-0.636,3.474-5.247C247.018,221.222,245.348,220.587,243.544,220.587z"/>
				<path style="fill:#407BFF;" d="M246.46,220.057h1.037c-0.187-2.413-1.152-3.511-3.071-3.511v1.037
					C245.168,217.583,246.247,217.591,246.46,220.057z"/>
			</g>
			<path style="fill:#263238;" d="M251.817,203.808c0,0-0.223-6.31-4.66-3.133c0,0-2.571-6.508-6.709-0.803
				c0,0-6.307-1.486-4.017,4.981c0,0-5.222,3.587,0.763,6.105c0,0,1.3,5.608,5.745,1.447c0,0,2.451,3.897,5.624-0.199
				c0,0,4.487,0.741,3.243-3.946C251.807,208.26,254.71,205.804,251.817,203.808z"/>
			<path style="fill:#407BFF;" d="M240.028,207.772c0,0,1.794-1.298,3.682-0.515c1.888,0.783,1.282,4.158,1.282,4.158
				L240.028,207.772z"/>
			<path style="fill:#7F3E3B;" d="M227.38,234.984c0,0,3.042,8.88,0.676,12.682c0,0,8.55,0.431,10.638-2.354
				c0,0-1.215-0.66-1.592-4.045C236.724,237.883,233.459,234.365,227.38,234.984z"/>
			<path style="opacity:0.2;enable-background:new    ;" d="M237.102,241.268c-0.35-3.137-3.184-6.383-8.437-6.349l-0.356,0.318
				l-0.38,0.675c0,0,3.229,8.665,9.702,7.744C237.416,243.071,237.218,242.311,237.102,241.268z"/>
			<path style="fill:#7F3E3B;" d="M224.161,223.185c1.019,8.172,1.271,11.652,5.675,15.601c6.627,5.944,16.437,2.911,17.887-5.4
				c1.303-7.48-0.576-19.578-8.804-22.343c-5.869-2.005-12.252,1.127-14.257,6.996C224.097,219.693,223.926,221.454,224.161,223.185
				z"/>
			<path style="fill:#630F0F;" d="M242.231,227.998c0.688,1.488,1.578,2.873,2.645,4.118c-0.655,0.538-1.514,0.759-2.348,0.603
				L242.231,227.998z"/>
			<path style="fill:#2E353A;" d="M235.03,223.74c-0.057-0.01-0.11-0.032-0.156-0.066c-0.141-0.112-0.164-0.317-0.052-0.459
				c0.001-0.002,0.003-0.003,0.004-0.005c0.751-0.991,1.938-1.553,3.18-1.507c0.177,0.023,0.305,0.181,0.291,0.358
				c-0.018,0.176-0.173,0.306-0.349,0.292c-1.026-0.021-2,0.452-2.619,1.271C235.257,223.713,235.143,223.757,235.03,223.74z"/>
			<path style="fill:#2E353A;" d="M247.147,222.441c-0.056-0.01-0.11-0.033-0.156-0.066c-0.801-0.634-1.858-0.845-2.841-0.569
				c-0.168,0.064-0.357-0.021-0.421-0.189c-0.001-0.001-0.001-0.003-0.002-0.004c-0.058-0.172,0.032-0.359,0.202-0.421
				c1.192-0.351,2.481-0.105,3.46,0.66c0.148,0.103,0.185,0.306,0.083,0.454C247.4,222.41,247.273,222.463,247.147,222.441
				L247.147,222.441z"/>
			<g>
				<path style="fill:#2E353A;" d="M237.446,227.189c0.04,0.664,0.429,1.181,0.87,1.158c0.442-0.024,0.754-0.586,0.707-1.26
					c-0.048-0.674-0.429-1.182-0.862-1.157C237.729,225.956,237.408,226.517,237.446,227.189z"/>
				<path style="fill:#2E353A;" d="M244.997,226.719c0.04,0.663,0.428,1.182,0.861,1.156c0.433-0.025,0.754-0.586,0.715-1.258
					c-0.039-0.673-0.428-1.182-0.861-1.157C245.279,225.485,244.949,226.045,244.997,226.719z"/>
				<path style="fill:#2E353A;" d="M245.523,225.508l1.574-0.559C247.097,224.949,246.348,226.249,245.523,225.508z"/>
				<path style="fill:#2E353A;" d="M237.973,225.979l1.574-0.559C239.546,225.42,238.798,226.72,237.973,225.979z"/>
			</g>
			<path style="fill:#263238;" d="M238.269,233.88c-0.177-0.202-0.337-0.419-0.477-0.649c-0.049-0.072-0.031-0.17,0.041-0.219
				c0.002-0.001,0.003-0.002,0.005-0.003c0.078-0.042,0.175-0.016,0.222,0.059c0.709,1.179,1.934,1.951,3.303,2.082
				c0.089,0.001,0.159,0.074,0.158,0.163c-0.002,0.089-0.074,0.159-0.163,0.157C240.155,235.379,239.041,234.805,238.269,233.88z"/>
			<path style="fill:#7F3E3B;" d="M222.627,229.793c0.55,1.494,1.672,2.709,3.118,3.376c1.924,0.868,3.202-0.773,2.935-2.756
				c-0.24-1.778-1.531-4.382-3.593-4.417c-1.502,0.02-2.703,1.253-2.683,2.755C222.409,229.109,222.484,229.464,222.627,229.793z"/>
			<path style="fill:#263238;" d="M231.799,209.111c0,0-11.298-0.964-16.88,7.927c-5.582,8.891,12.462,17.945,12.462,17.945
				l4.419-13.33c0,0,3.706-1.08,4.28-4.508c0,0,0.847,1.232-0.575,3.428c0,0,9.398,0.536,8.969-4.339c0,0,0.725,1.393,0.014,2.625
				c0,0,2.928,0,2.609-2.571C246.777,213.717,244.727,203.005,231.799,209.111z"/>
			<path style="fill:#407BFF;" d="M215.282,217.226c0,0,3.053,0.623,3.053,3.294c0,2.732-3.901,2.889-3.901,2.889L215.282,217.226z"
				/>
			<path style="fill:#263238;" d="M216.246,218.27c0,0-0.222-6.31-4.66-3.133c0,0-2.571-6.508-6.709-0.803
				c0,0-6.307-1.486-4.017,4.981c0,0-5.222,3.587,0.763,6.105c0,0,1.3,5.608,5.745,1.447c0,0,2.451,3.897,5.624-0.2
				c0,0,4.487,0.741,3.243-3.946C216.236,222.722,219.139,220.266,216.246,218.27z"/>
			<path style="fill:#407BFF;" d="M247.097,216.288c-0.034-0.271-0.089-0.636-0.171-1.058c-1.727-3.34-5.286-6.773-12.605-5.691
				c-13.404,1.982-11.917,14.204-11.917,14.204h4.977c0,0-1.681-10.434,8.133-12.785c6.575-1.575,9.952,2.301,11.599,5.626
				C247.109,216.488,247.11,216.394,247.097,216.288z"/>
			<path style="opacity:0.2;" d="M247.097,216.288c-0.034-0.271-0.089-0.636-0.171-1.058c-1.727-3.34-5.286-6.773-12.605-5.691
				c-13.404,1.982-11.917,14.204-11.917,14.204h4.977c0,0-1.681-10.434,8.133-12.785c6.575-1.575,9.952,2.301,11.599,5.626
				C247.109,216.488,247.11,216.394,247.097,216.288z"/>
			<g>
				<g>
					<path style="fill:#407BFF;" d="M222.663,224.333h-1.037c0-3.067,0.959-4.434,3.109-4.434v1.037
						C223.91,220.935,222.663,220.935,222.663,224.333z"/>
				</g>
				<ellipse style="fill:#407BFF;" cx="225.436" cy="229.186" rx="4.511" ry="6.284"/>
				<ellipse style="opacity:0.2;" cx="225.436" cy="229.186" rx="4.511" ry="6.284"/>
				<ellipse style="fill:#407BFF;" cx="223.854" cy="229.186" rx="4.511" ry="6.284"/>
				<path style="opacity:0.5;fill:#FFFFFF;" d="M223.854,223.938c-1.804,0-3.474,0.636-3.474,5.249c0,4.611,1.67,5.247,3.474,5.247
					c1.804,0,3.474-0.636,3.474-5.247C227.328,224.574,225.658,223.938,223.854,223.938z"/>
				<path style="fill:#407BFF;" d="M226.769,223.409h1.037c-0.187-2.413-1.152-3.511-3.071-3.511v1.037
					C225.477,220.935,226.557,220.943,226.769,223.409z"/>
			</g>
		</g>
		<path style="fill:#7F3E3B;" d="M236.079,250.669c7.91-1.11,4.163-4.409,2.651-5.505c-3.488,0.145-7.293,0.379-10.801,0.759
			C227.928,245.927,226.542,252.007,236.079,250.669z"/>
		<path style="fill:#7F3E3B;" d="M281.2,255.808l-1.66,1.056c-0.624,0.397-1.018,1.071-1.057,1.81l-0.182,3.452
			c-0.073,1.38,0.527,2.71,1.61,3.569l0.671,0.532c2.872-1.563,4.825-5.369,4.825-5.369l0.677-1.023
			c0.602-0.911,0.394-2.072-0.479-2.666l-2.01-1.368C282.901,255.33,281.948,255.332,281.2,255.808z"/>
		<g>
			<g>
				<path style="fill:#407BFF;" d="M251.567,275.43h-4.981c-1.025,0-1.679-0.831-1.461-1.855l2.767-13.016
					c0.218-1.025,1.225-1.855,2.25-1.855h4.981c1.025,0,1.679,0.831,1.461,1.855l-2.767,13.016
					C253.599,274.6,252.592,275.43,251.567,275.43z"/>
				<path style="opacity:0.3;fill:#FFFFFF;" d="M251.567,275.43h-4.981c-1.025,0-1.679-0.831-1.461-1.855l2.767-13.016
					c0.218-1.025,1.225-1.855,2.25-1.855h4.981c1.025,0,1.679,0.831,1.461,1.855l-2.767,13.016
					C253.599,274.6,252.592,275.43,251.567,275.43z"/>
			</g>
			<g>
				<path style="fill:#407BFF;" d="M252.299,275.43h-4.981c-1.025,0-1.679-0.831-1.461-1.855l2.767-13.016
					c0.218-1.025,1.225-1.855,2.25-1.855h4.981c1.025,0,1.679,0.831,1.461,1.855l-2.767,13.016
					C254.331,274.6,253.324,275.43,252.299,275.43z"/>
				<path style="opacity:0.7;fill:#FFFFFF;" d="M252.299,275.43h-4.981c-1.025,0-1.679-0.831-1.461-1.855l2.767-13.016
					c0.218-1.025,1.225-1.855,2.25-1.855h4.981c1.025,0,1.679,0.831,1.461,1.855l-2.767,13.016
					C254.331,274.6,253.324,275.43,252.299,275.43z"/>
			</g>
			<g>
				<path style="fill:#407BFF;" d="M250.321,262.553h0.484c0.688,0,1.364-0.558,1.51-1.245l0.103-0.484
					c0.146-0.688-0.293-1.245-0.98-1.245h-0.484c-0.688,0-1.364,0.557-1.51,1.245l-0.103,0.484
					C249.194,261.995,249.633,262.553,250.321,262.553z"/>
				<path style="fill:#263238;" d="M251.518,260.322c-0.061,0.285-0.341,0.516-0.626,0.516c-0.285,0-0.467-0.231-0.406-0.516
					c0.061-0.285,0.341-0.516,0.626-0.516C251.397,259.806,251.579,260.037,251.518,260.322z"/>
				<path style="fill:#263238;" d="M251.202,261.809c-0.061,0.285-0.341,0.516-0.626,0.516c-0.285,0-0.467-0.231-0.407-0.516
					c0.061-0.285,0.341-0.516,0.626-0.516C251.081,261.293,251.263,261.524,251.202,261.809z"/>
			</g>
		</g>
		<path style="fill:#7F3E3B;" d="M251.607,271.551l-1.056,1.66c-0.397,0.624-1.071,1.018-1.81,1.057l-3.452,0.182
			c-1.38,0.073-2.71-0.527-3.569-1.61l-0.532-0.671c1.563-2.872,5.369-4.825,5.369-4.825l1.023-0.677
			c0.911-0.602,2.072-0.395,2.666,0.479l1.368,2.01C252.086,269.85,252.083,270.803,251.607,271.551z"/>
		<g>
			<path style="fill:#407BFF;" d="M194.023,358.236c-2.012,0-9.147-0.269-12.993-3.924c-1.605-1.524-2.437-3.449-2.471-5.72
				c-0.091-5.987,4.83-6.769,11.641-7.851c5.72-0.909,12.839-2.041,20.819-6.225c7.134-3.742,11.514-22.179,12.665-53.316
				c0.876-23.679-0.459-46.499-0.472-46.728l1.283-0.075c0.223,3.741,5.256,91.746-12.879,101.256
				c-8.167,4.283-15.708,5.482-21.215,6.357c-7.372,1.172-10.628,1.887-10.557,6.562c0.029,1.912,0.725,3.529,2.069,4.807
				c4.018,3.82,12.502,3.574,12.593,3.564l0.046,1.286C194.504,358.229,194.319,358.236,194.023,358.236z"/>
		</g>
		<path style="opacity:0.5;" d="M223.257,235.283c0.226,4.243,1.211,24.729,0.427,45.917c-1.151,31.137-5.531,49.574-12.665,53.316
			c-7.98,4.184-15.099,5.316-20.819,6.225c-6.811,1.082-11.732,1.864-11.641,7.851c0.035,2.271,0.866,4.196,2.471,5.72
			c3.846,3.656,10.981,3.924,12.993,3.924c0.296,0,0.481-0.006,0.529-0.008l-0.046-1.286c-0.091,0.01-8.576,0.256-12.593-3.564
			c-1.344-1.278-2.04-2.895-2.069-4.807c-0.071-4.675,3.185-5.389,10.557-6.562c5.507-0.875,13.048-2.074,21.215-6.357
			c17.392-9.121,13.477-90.423,12.929-100.37H223.257z"/>
		<path d="M194.62,356.08h-4.327c-0.446,0-0.808,0.362-0.808,0.808v0.903c0,0.446,0.362,0.808,0.808,0.808h4.246
			C194.516,357.76,194.544,356.917,194.62,356.08z"/>
		<g>
			<polygon style="fill:#407BFF;" points="260.262,257.367 261.45,252.85 264.779,256.178 			"/>
			<circle style="fill:#407BFF;" cx="265.487" cy="251.813" r="5.313"/>
			<g>
				<path style="fill:#FFFFFF;" d="M265.147,249.419l-1.55,1.38h-1.406v2.027h1.406l1.55,1.38c0.133,0.119,0.328,0.01,0.328-0.183
					v-4.421C265.476,249.409,265.281,249.3,265.147,249.419z"/>
				<g>
					<path style="fill:#FFFFFF;" d="M266.348,250.473c0.723,0.784,0.724,1.895,0,2.68c-0.247,0.268,0.153,0.67,0.401,0.401
						c0.935-1.014,0.935-2.468,0-3.482C266.501,249.803,266.101,250.204,266.348,250.473L266.348,250.473z"/>
				</g>
				<g>
					<path style="fill:#FFFFFF;" d="M267.096,249.026c1.503,1.629,1.505,3.94,0,5.573c-0.247,0.268,0.153,0.67,0.401,0.401
						c1.714-1.858,1.713-4.517,0-6.375C267.249,248.356,266.849,248.758,267.096,249.026L267.096,249.026z"/>
				</g>
			</g>
		</g>
	</g>
	<path style="opacity:0.2;" d="M258.763,301.524c0,0-11.874,2.35-27.724,0.883l18.159,5.58l9.9-5.342L258.763,301.524z"/>
</g>
<g id="Flowers">
	<g>
		<g>
			<g>
				<path style="fill:#407BFF;" d="M333.003,131.457c0,2.083-1.689,10.873-3.772,10.873c-2.083,0-3.772-8.789-3.772-10.873
					c0-2.083,1.689-3.772,3.772-3.772C331.314,127.685,333.003,129.374,333.003,131.457z"/>
				<path style="opacity:0.6;fill:#FFFFFF;" d="M333.003,131.457c0,2.083-1.689,10.873-3.772,10.873
					c-2.083,0-3.772-8.789-3.772-10.873c0-2.083,1.689-3.772,3.772-3.772C331.314,127.685,333.003,129.374,333.003,131.457z"/>
			</g>
			<g>
				<path style="fill:#407BFF;" d="M325.458,161.548c0-2.083,1.689-10.872,3.772-10.872c2.083,0,3.772,8.789,3.772,10.872
					c0,2.083-1.689,3.772-3.772,3.772C327.147,165.32,325.458,163.631,325.458,161.548z"/>
				<path style="opacity:0.6;fill:#FFFFFF;" d="M325.458,161.548c0-2.083,1.689-10.872,3.772-10.872
					c2.083,0,3.772,8.789,3.772,10.872c0,2.083-1.689,3.772-3.772,3.772C327.147,165.32,325.458,163.631,325.458,161.548z"/>
			</g>
			<g>
				<path style="fill:#407BFF;" d="M344.276,150.275c-2.083,0-10.873-1.689-10.873-3.772c0-2.083,8.789-3.772,10.873-3.772
					c2.083,0,3.772,1.689,3.772,3.772C348.048,148.586,346.359,150.275,344.276,150.275z"/>
				<path style="opacity:0.6;fill:#FFFFFF;" d="M344.276,150.275c-2.083,0-10.873-1.689-10.873-3.772
					c0-2.083,8.789-3.772,10.873-3.772c2.083,0,3.772,1.689,3.772,3.772C348.048,148.586,346.359,150.275,344.276,150.275z"/>
			</g>
			<g>
				<path style="fill:#407BFF;" d="M314.185,142.73c2.083,0,10.873,1.689,10.873,3.772c0,2.083-8.789,3.772-10.873,3.772
					c-2.083,0-3.772-1.689-3.772-3.772C310.413,144.419,312.102,142.73,314.185,142.73z"/>
				<path style="opacity:0.6;fill:#FFFFFF;" d="M314.185,142.73c2.083,0,10.873,1.689,10.873,3.772
					c0,2.083-8.789,3.772-10.873,3.772c-2.083,0-3.772-1.689-3.772-3.772C310.413,144.419,312.102,142.73,314.185,142.73z"/>
			</g>
			<g>
				<path style="fill:#407BFF;" d="M342.536,138.531c-1.473,1.473-8.882,6.494-10.355,5.021c-1.473-1.473,3.548-8.882,5.021-10.355
					c1.473-1.473,3.862-1.473,5.335,0C344.01,134.67,344.01,137.058,342.536,138.531z"/>
				<path style="opacity:0.6;fill:#FFFFFF;" d="M342.536,138.531c-1.473,1.473-8.882,6.494-10.355,5.021
					c-1.473-1.473,3.548-8.882,5.021-10.355c1.473-1.473,3.862-1.473,5.335,0C344.01,134.67,344.01,137.058,342.536,138.531z"/>
			</g>
			<g>
				<path style="fill:#407BFF;" d="M315.924,154.474c1.473-1.473,8.882-6.494,10.355-5.021c1.473,1.473-3.548,8.882-5.021,10.355
					c-1.473,1.473-3.861,1.473-5.335,0C314.451,158.335,314.451,155.947,315.924,154.474z"/>
				<path style="opacity:0.6;fill:#FFFFFF;" d="M315.924,154.474c1.473-1.473,8.882-6.494,10.355-5.021
					c1.473,1.473-3.548,8.882-5.021,10.355c-1.473,1.473-3.861,1.473-5.335,0C314.451,158.335,314.451,155.947,315.924,154.474z"/>
			</g>
			<g>
				<path style="fill:#407BFF;" d="M337.202,159.809c-1.473-1.473-6.494-8.882-5.021-10.355c1.473-1.473,8.882,3.548,10.355,5.021
					c1.473,1.473,1.473,3.861,0,5.335C341.064,161.282,338.675,161.282,337.202,159.809z"/>
				<path style="opacity:0.6;fill:#FFFFFF;" d="M337.202,159.809c-1.473-1.473-6.494-8.882-5.021-10.355
					c1.473-1.473,8.882,3.548,10.355,5.021c1.473,1.473,1.473,3.861,0,5.335C341.064,161.282,338.675,161.282,337.202,159.809z"/>
			</g>
			<g>
				<path style="fill:#407BFF;" d="M321.259,133.197c1.473,1.473,6.494,8.882,5.021,10.355c-1.473,1.473-8.882-3.548-10.355-5.021
					c-1.473-1.473-1.473-3.861,0-5.335C317.397,131.723,319.786,131.723,321.259,133.197z"/>
				<path style="opacity:0.6;fill:#FFFFFF;" d="M321.259,133.197c1.473,1.473,6.494,8.882,5.021,10.355
					c-1.473,1.473-8.882-3.548-10.355-5.021c-1.473-1.473-1.473-3.861,0-5.335C317.397,131.723,319.786,131.723,321.259,133.197z"/>
			</g>
			<g>
				<path style="fill:#407BFF;" d="M335.665,146.503c0,3.554-2.881,6.435-6.435,6.435c-3.554,0-6.435-2.881-6.435-6.435
					s2.881-6.435,6.435-6.435C332.784,140.068,335.665,142.949,335.665,146.503z"/>
				<path style="opacity:0.4;fill:#FFFFFF;" d="M335.665,146.503c0,3.554-2.881,6.435-6.435,6.435c-3.554,0-6.435-2.881-6.435-6.435
					s2.881-6.435,6.435-6.435C332.784,140.068,335.665,142.949,335.665,146.503z"/>
			</g>
		</g>
		<g>
			<g>
				<path style="fill:#407BFF;" d="M361.307,307.735c0,1.042-0.845,5.436-1.886,5.436s-1.886-4.395-1.886-5.436
					c0-1.041,0.844-1.886,1.886-1.886S361.307,306.694,361.307,307.735z"/>
				<path style="opacity:0.6;fill:#FFFFFF;" d="M361.307,307.735c0,1.042-0.845,5.436-1.886,5.436s-1.886-4.395-1.886-5.436
					c0-1.041,0.844-1.886,1.886-1.886S361.307,306.694,361.307,307.735z"/>
			</g>
			<g>
				<path style="fill:#407BFF;" d="M357.535,322.781c0-1.042,0.844-5.436,1.886-5.436s1.886,4.395,1.886,5.436
					c0,1.042-0.845,1.886-1.886,1.886S357.535,323.822,357.535,322.781z"/>
				<path style="opacity:0.6;fill:#FFFFFF;" d="M357.535,322.781c0-1.042,0.844-5.436,1.886-5.436s1.886,4.395,1.886,5.436
					c0,1.042-0.845,1.886-1.886,1.886S357.535,323.822,357.535,322.781z"/>
			</g>
			<g>
				<path style="fill:#407BFF;" d="M366.943,317.144c-1.042,0-5.436-0.844-5.436-1.886c0-1.042,4.395-1.886,5.436-1.886
					s1.886,0.844,1.886,1.886C368.829,316.299,367.985,317.144,366.943,317.144z"/>
				<path style="opacity:0.6;fill:#FFFFFF;" d="M366.943,317.144c-1.042,0-5.436-0.844-5.436-1.886c0-1.042,4.395-1.886,5.436-1.886
					s1.886,0.844,1.886,1.886C368.829,316.299,367.985,317.144,366.943,317.144z"/>
			</g>
			<g>
				<path style="fill:#407BFF;" d="M351.898,313.372c1.042,0,5.436,0.844,5.436,1.886c0,1.042-4.395,1.886-5.436,1.886
					s-1.886-0.844-1.886-1.886C350.012,314.216,350.856,313.372,351.898,313.372z"/>
				<path style="opacity:0.6;fill:#FFFFFF;" d="M351.898,313.372c1.042,0,5.436,0.844,5.436,1.886c0,1.042-4.395,1.886-5.436,1.886
					s-1.886-0.844-1.886-1.886C350.012,314.216,350.856,313.372,351.898,313.372z"/>
			</g>
			<g>
				<path style="fill:#407BFF;" d="M366.074,311.272c-0.737,0.737-4.441,3.247-5.178,2.51c-0.737-0.737,1.774-4.441,2.51-5.178
					c0.737-0.737,1.931-0.737,2.667,0S366.81,310.535,366.074,311.272z"/>
				<path style="opacity:0.6;fill:#FFFFFF;" d="M366.074,311.272c-0.737,0.737-4.441,3.247-5.178,2.51
					c-0.737-0.737,1.774-4.441,2.51-5.178c0.737-0.737,1.931-0.737,2.667,0S366.81,310.535,366.074,311.272z"/>
			</g>
			<g>
				<path style="fill:#407BFF;" d="M352.767,319.244c0.737-0.736,4.441-3.247,5.178-2.51c0.737,0.737-1.774,4.441-2.51,5.178
					c-0.737,0.737-1.931,0.737-2.667,0C352.031,321.174,352.031,319.98,352.767,319.244z"/>
				<path style="opacity:0.6;fill:#FFFFFF;" d="M352.767,319.244c0.737-0.736,4.441-3.247,5.178-2.51
					c0.737,0.737-1.774,4.441-2.51,5.178c-0.737,0.737-1.931,0.737-2.667,0C352.031,321.174,352.031,319.98,352.767,319.244z"/>
			</g>
			<g>
				<path style="fill:#407BFF;" d="M363.406,321.911c-0.737-0.737-3.247-4.441-2.51-5.178c0.737-0.737,4.441,1.774,5.178,2.51
					c0.737,0.737,0.737,1.931,0,2.667S364.143,322.647,363.406,321.911z"/>
				<path style="opacity:0.6;fill:#FFFFFF;" d="M363.406,321.911c-0.737-0.737-3.247-4.441-2.51-5.178
					c0.737-0.737,4.441,1.774,5.178,2.51c0.737,0.737,0.737,1.931,0,2.667S364.143,322.647,363.406,321.911z"/>
			</g>
			<g>
				<path style="fill:#407BFF;" d="M355.435,308.605c0.736,0.737,3.247,4.441,2.51,5.178c-0.737,0.736-4.441-1.774-5.178-2.51
					c-0.736-0.737-0.736-1.931,0-2.667C353.504,307.868,354.698,307.868,355.435,308.605z"/>
				<path style="opacity:0.6;fill:#FFFFFF;" d="M355.435,308.605c0.736,0.737,3.247,4.441,2.51,5.178
					c-0.737,0.736-4.441-1.774-5.178-2.51c-0.736-0.737-0.736-1.931,0-2.667C353.504,307.868,354.698,307.868,355.435,308.605z"/>
			</g>
			<g>
				<path style="fill:#407BFF;" d="M362.638,315.258c0,1.777-1.44,3.217-3.217,3.217c-1.777,0-3.217-1.44-3.217-3.217
					c0-1.777,1.44-3.217,3.217-3.217C361.198,312.04,362.638,313.481,362.638,315.258z"/>
				<path style="opacity:0.4;fill:#FFFFFF;" d="M362.638,315.258c0,1.777-1.44,3.217-3.217,3.217c-1.777,0-3.217-1.44-3.217-3.217
					c0-1.777,1.44-3.217,3.217-3.217C361.198,312.04,362.638,313.481,362.638,315.258z"/>
			</g>
		</g>
		<g>
			<g>
				<path style="fill:#407BFF;" d="M115.343,320.037c0,1.042-0.844,5.436-1.886,5.436c-1.042,0-1.886-4.395-1.886-5.436
					c0-1.042,0.844-1.886,1.886-1.886C114.498,318.151,115.343,318.996,115.343,320.037z"/>
				<path style="opacity:0.6;fill:#FFFFFF;" d="M115.343,320.037c0,1.042-0.844,5.436-1.886,5.436c-1.042,0-1.886-4.395-1.886-5.436
					c0-1.042,0.844-1.886,1.886-1.886C114.498,318.151,115.343,318.996,115.343,320.037z"/>
			</g>
			<g>
				<path style="fill:#407BFF;" d="M111.571,335.083c0-1.042,0.844-5.436,1.886-5.436c1.042,0,1.886,4.395,1.886,5.436
					c0,1.042-0.844,1.886-1.886,1.886C112.415,336.969,111.571,336.125,111.571,335.083z"/>
				<path style="opacity:0.6;fill:#FFFFFF;" d="M111.571,335.083c0-1.042,0.844-5.436,1.886-5.436c1.042,0,1.886,4.395,1.886,5.436
					c0,1.042-0.844,1.886-1.886,1.886C112.415,336.969,111.571,336.125,111.571,335.083z"/>
			</g>
			<g>
				<path style="fill:#407BFF;" d="M120.979,329.446c-1.042,0-5.436-0.844-5.436-1.886c0-1.042,4.395-1.886,5.436-1.886
					c1.042,0,1.886,0.844,1.886,1.886C122.865,328.602,122.021,329.446,120.979,329.446z"/>
				<path style="opacity:0.6;fill:#FFFFFF;" d="M120.979,329.446c-1.042,0-5.436-0.844-5.436-1.886c0-1.042,4.395-1.886,5.436-1.886
					c1.042,0,1.886,0.844,1.886,1.886C122.865,328.602,122.021,329.446,120.979,329.446z"/>
			</g>
			<g>
				<path style="fill:#407BFF;" d="M105.934,325.674c1.042,0,5.436,0.844,5.436,1.886c0,1.042-4.395,1.886-5.436,1.886
					s-1.886-0.844-1.886-1.886C104.048,326.518,104.892,325.674,105.934,325.674z"/>
				<path style="opacity:0.6;fill:#FFFFFF;" d="M105.934,325.674c1.042,0,5.436,0.844,5.436,1.886c0,1.042-4.395,1.886-5.436,1.886
					s-1.886-0.844-1.886-1.886C104.048,326.518,104.892,325.674,105.934,325.674z"/>
			</g>
			<g>
				<path style="fill:#407BFF;" d="M120.11,323.574c-0.736,0.736-4.441,3.247-5.178,2.51c-0.737-0.737,1.774-4.441,2.51-5.178
					c0.737-0.737,1.931-0.737,2.667,0C120.846,321.644,120.846,322.838,120.11,323.574z"/>
				<path style="opacity:0.6;fill:#FFFFFF;" d="M120.11,323.574c-0.736,0.736-4.441,3.247-5.178,2.51
					c-0.737-0.737,1.774-4.441,2.51-5.178c0.737-0.737,1.931-0.737,2.667,0C120.846,321.644,120.846,322.838,120.11,323.574z"/>
			</g>
			<g>
				<path style="fill:#407BFF;" d="M106.803,331.546c0.737-0.737,4.441-3.247,5.178-2.51c0.737,0.737-1.774,4.441-2.51,5.178
					c-0.737,0.737-1.931,0.737-2.667,0C106.067,333.477,106.067,332.282,106.803,331.546z"/>
				<path style="opacity:0.6;fill:#FFFFFF;" d="M106.803,331.546c0.737-0.737,4.441-3.247,5.178-2.51
					c0.737,0.737-1.774,4.441-2.51,5.178c-0.737,0.737-1.931,0.737-2.667,0C106.067,333.477,106.067,332.282,106.803,331.546z"/>
			</g>
			<g>
				<path style="fill:#407BFF;" d="M117.442,334.213c-0.736-0.737-3.247-4.441-2.51-5.178c0.737-0.736,4.441,1.774,5.178,2.51
					c0.737,0.737,0.737,1.931,0,2.667C119.373,334.95,118.179,334.95,117.442,334.213z"/>
				<path style="opacity:0.6;fill:#FFFFFF;" d="M117.442,334.213c-0.736-0.737-3.247-4.441-2.51-5.178
					c0.737-0.736,4.441,1.774,5.178,2.51c0.737,0.737,0.737,1.931,0,2.667C119.373,334.95,118.179,334.95,117.442,334.213z"/>
			</g>
			<g>
				<path style="fill:#407BFF;" d="M109.471,320.907c0.736,0.737,3.247,4.441,2.51,5.178c-0.737,0.737-4.441-1.774-5.178-2.51
					c-0.736-0.737-0.736-1.931,0-2.667C107.54,320.17,108.734,320.17,109.471,320.907z"/>
				<path style="opacity:0.6;fill:#FFFFFF;" d="M109.471,320.907c0.736,0.737,3.247,4.441,2.51,5.178
					c-0.737,0.737-4.441-1.774-5.178-2.51c-0.736-0.737-0.736-1.931,0-2.667C107.54,320.17,108.734,320.17,109.471,320.907z"/>
			</g>
			<g>
				<circle style="fill:#407BFF;" cx="113.456" cy="327.56" r="3.217"/>
				<circle style="opacity:0.4;fill:#FFFFFF;" cx="113.456" cy="327.56" r="3.217"/>
			</g>
		</g>
		<g>
			<g>
				<g>
					<path style="fill:#407BFF;" d="M338.793,171.462c1.026,1.026,4.523,6.187,3.497,7.213c-1.026,1.026-6.187-2.471-7.213-3.497
						c-1.026-1.026-1.026-2.69,0-3.716C336.103,170.436,337.767,170.436,338.793,171.462z"/>
					<path style="opacity:0.8;fill:#FFFFFF;" d="M338.793,171.462c1.026,1.026,4.523,6.187,3.497,7.213
						c-1.026,1.026-6.187-2.471-7.213-3.497c-1.026-1.026-1.026-2.69,0-3.716C336.103,170.436,337.767,170.436,338.793,171.462z"/>
				</g>
				<g>
					<path style="fill:#407BFF;" d="M347.713,187.813c-1.026-1.026-4.523-6.187-3.497-7.213c1.026-1.026,6.187,2.471,7.213,3.497
						c1.026,1.026,1.026,2.69,0,3.716C350.402,188.839,348.739,188.839,347.713,187.813z"/>
					<path style="opacity:0.8;fill:#FFFFFF;" d="M347.713,187.813c-1.026-1.026-4.523-6.187-3.497-7.213
						c1.026-1.026,6.187,2.471,7.213,3.497c1.026,1.026,1.026,2.69,0,3.716C350.402,188.839,348.739,188.839,347.713,187.813z"/>
				</g>
				<g>
					<path style="fill:#407BFF;" d="M333.942,179.412c1.402-0.376,7.62-0.824,7.996,0.578c0.376,1.402-5.234,4.122-6.635,4.498
						c-1.402,0.376-2.843-0.456-3.218-1.858C331.709,181.228,332.54,179.788,333.942,179.412z"/>
					<path style="opacity:0.8;fill:#FFFFFF;" d="M333.942,179.412c1.402-0.376,7.62-0.824,7.996,0.578
						c0.376,1.402-5.234,4.122-6.635,4.498c-1.402,0.376-2.843-0.456-3.218-1.858C331.709,181.228,332.54,179.788,333.942,179.412z"
						/>
				</g>
				<g>
					<path style="fill:#407BFF;" d="M352.563,179.863c-1.402,0.376-7.62,0.824-7.996-0.578c-0.376-1.402,5.234-4.123,6.635-4.498
						c1.402-0.376,2.842,0.456,3.218,1.858C354.797,178.047,353.965,179.488,352.563,179.863z"/>
					<path style="opacity:0.8;fill:#FFFFFF;" d="M352.563,179.863c-1.402,0.376-7.62,0.824-7.996-0.578
						c-0.376-1.402,5.234-4.123,6.635-4.498c1.402-0.376,2.842,0.456,3.218,1.858C354.797,178.047,353.965,179.488,352.563,179.863z
						"/>
				</g>
				<g>
					<path style="fill:#407BFF;" d="M338.402,187.588c0.376-1.402,3.096-7.011,4.498-6.635c1.402,0.376,0.953,6.594,0.578,7.995
						c-0.376,1.402-1.816,2.234-3.218,1.858C338.858,190.43,338.027,188.99,338.402,187.588z"/>
					<path style="opacity:0.8;fill:#FFFFFF;" d="M338.402,187.588c0.376-1.402,3.096-7.011,4.498-6.635
						c1.402,0.376,0.953,6.594,0.578,7.995c-0.376,1.402-1.816,2.234-3.218,1.858C338.858,190.43,338.027,188.99,338.402,187.588z"
						/>
				</g>
				<g>
					<path style="fill:#407BFF;" d="M348.103,171.687c-0.376,1.402-3.096,7.011-4.498,6.635c-1.402-0.376-0.954-6.594-0.578-7.995
						c0.376-1.402,1.816-2.234,3.218-1.858C347.647,168.845,348.479,170.286,348.103,171.687z"/>
					<path style="opacity:0.8;fill:#FFFFFF;" d="M348.103,171.687c-0.376,1.402-3.096,7.011-4.498,6.635
						c-1.402-0.376-0.954-6.594-0.578-7.995c0.376-1.402,1.816-2.234,3.218-1.858C347.647,168.845,348.479,170.286,348.103,171.687z
						"/>
				</g>
			</g>
			<g>
				<path style="fill:#407BFF;" d="M345.766,177.124c1.388,1.388,1.388,3.639,0,5.027c-1.388,1.388-3.639,1.388-5.028,0
					c-1.388-1.388-1.388-3.639,0-5.027C342.127,175.736,344.378,175.736,345.766,177.124z"/>
				<path style="opacity:0.4;fill:#FFFFFF;" d="M345.766,177.124c1.388,1.388,1.388,3.639,0,5.027c-1.388,1.388-3.639,1.388-5.028,0
					c-1.388-1.388-1.388-3.639,0-5.027C342.127,175.736,344.378,175.736,345.766,177.124z"/>
			</g>
		</g>
		<g>
			<g>
				<g>
					<path style="fill:#407BFF;" d="M374.387,301.716c0.628,0.628,2.767,3.784,2.139,4.412c-0.628,0.628-3.784-1.512-4.412-2.139
						s-0.628-1.645,0-2.273C372.742,301.088,373.76,301.088,374.387,301.716z"/>
					<path style="opacity:0.8;fill:#FFFFFF;" d="M374.387,301.716c0.628,0.628,2.767,3.784,2.139,4.412
						c-0.628,0.628-3.784-1.512-4.412-2.139s-0.628-1.645,0-2.273C372.742,301.088,373.76,301.088,374.387,301.716z"/>
				</g>
				<g>
					<path style="fill:#407BFF;" d="M379.843,311.717c-0.628-0.628-2.767-3.784-2.139-4.412c0.628-0.628,3.784,1.511,4.412,2.139
						c0.628,0.628,0.628,1.645,0,2.273C381.488,312.345,380.471,312.345,379.843,311.717z"/>
					<path style="opacity:0.8;fill:#FFFFFF;" d="M379.843,311.717c-0.628-0.628-2.767-3.784-2.139-4.412
						c0.628-0.628,3.784,1.511,4.412,2.139c0.628,0.628,0.628,1.645,0,2.273C381.488,312.345,380.471,312.345,379.843,311.717z"/>
				</g>
				<g>
					<path style="fill:#407BFF;" d="M371.421,306.579c0.857-0.23,4.661-0.504,4.89,0.353c0.23,0.857-3.201,2.521-4.058,2.751
						c-0.857,0.23-1.739-0.279-1.968-1.136C370.055,307.689,370.563,306.808,371.421,306.579z"/>
					<path style="opacity:0.8;fill:#FFFFFF;" d="M371.421,306.579c0.857-0.23,4.661-0.504,4.89,0.353
						c0.23,0.857-3.201,2.521-4.058,2.751c-0.857,0.23-1.739-0.279-1.968-1.136C370.055,307.689,370.563,306.808,371.421,306.579z"
						/>
				</g>
				<g>
					<path style="fill:#407BFF;" d="M382.81,306.854c-0.857,0.23-4.661,0.504-4.89-0.353c-0.23-0.857,3.201-2.522,4.058-2.751
						c0.857-0.23,1.739,0.279,1.968,1.136C384.176,305.743,383.667,306.625,382.81,306.854z"/>
					<path style="opacity:0.8;fill:#FFFFFF;" d="M382.81,306.854c-0.857,0.23-4.661,0.504-4.89-0.353
						c-0.23-0.857,3.201-2.522,4.058-2.751c0.857-0.23,1.739,0.279,1.968,1.136C384.176,305.743,383.667,306.625,382.81,306.854z"/>
				</g>
				<g>
					<path style="fill:#407BFF;" d="M374.148,311.579c0.23-0.857,1.894-4.288,2.751-4.058c0.857,0.23,0.583,4.033,0.354,4.89
						c-0.23,0.857-1.111,1.366-1.968,1.136C374.427,313.318,373.919,312.436,374.148,311.579z"/>
					<path style="opacity:0.8;fill:#FFFFFF;" d="M374.148,311.579c0.23-0.857,1.894-4.288,2.751-4.058
						c0.857,0.23,0.583,4.033,0.354,4.89c-0.23,0.857-1.111,1.366-1.968,1.136C374.427,313.318,373.919,312.436,374.148,311.579z"/>
				</g>
				<g>
					<path style="fill:#407BFF;" d="M380.082,301.854c-0.23,0.857-1.894,4.288-2.751,4.059c-0.857-0.23-0.583-4.033-0.353-4.89
						c0.23-0.857,1.111-1.366,1.968-1.136C379.803,300.115,380.312,300.997,380.082,301.854z"/>
					<path style="opacity:0.8;fill:#FFFFFF;" d="M380.082,301.854c-0.23,0.857-1.894,4.288-2.751,4.059
						c-0.857-0.23-0.583-4.033-0.353-4.89c0.23-0.857,1.111-1.366,1.968-1.136C379.803,300.115,380.312,300.997,380.082,301.854z"/>
				</g>
			</g>
			<g>
				<path style="fill:#407BFF;" d="M378.653,305.179c0.849,0.849,0.849,2.226,0,3.075c-0.849,0.849-2.226,0.849-3.075,0
					c-0.849-0.849-0.849-2.226,0-3.075C376.427,304.33,377.803,304.33,378.653,305.179z"/>
				<path style="opacity:0.4;fill:#FFFFFF;" d="M378.653,305.179c0.849,0.849,0.849,2.226,0,3.075c-0.849,0.849-2.226,0.849-3.075,0
					c-0.849-0.849-0.849-2.226,0-3.075C376.427,304.33,377.803,304.33,378.653,305.179z"/>
			</g>
		</g>
		<g>
			<g>
				<g>
					<path style="fill:#407BFF;" d="M234.715,146.28c0.628,0.628,2.767,3.784,2.139,4.412c-0.628,0.628-3.784-1.511-4.412-2.139
						c-0.628-0.628-0.628-1.645,0-2.273C233.07,145.652,234.088,145.652,234.715,146.28z"/>
					<path style="opacity:0.8;fill:#FFFFFF;" d="M234.715,146.28c0.628,0.628,2.767,3.784,2.139,4.412
						c-0.628,0.628-3.784-1.511-4.412-2.139c-0.628-0.628-0.628-1.645,0-2.273C233.07,145.652,234.088,145.652,234.715,146.28z"/>
				</g>
				<g>
					<path style="fill:#407BFF;" d="M240.171,156.281c-0.628-0.628-2.767-3.784-2.139-4.412c0.628-0.628,3.784,1.511,4.412,2.139
						c0.628,0.628,0.628,1.645,0,2.273C241.816,156.909,240.799,156.909,240.171,156.281z"/>
					<path style="opacity:0.8;fill:#FFFFFF;" d="M240.171,156.281c-0.628-0.628-2.767-3.784-2.139-4.412
						c0.628-0.628,3.784,1.511,4.412,2.139c0.628,0.628,0.628,1.645,0,2.273C241.816,156.909,240.799,156.909,240.171,156.281z"/>
				</g>
				<g>
					<path style="fill:#407BFF;" d="M231.749,151.143c0.857-0.23,4.661-0.504,4.89,0.353c0.23,0.857-3.201,2.521-4.059,2.751
						c-0.857,0.23-1.739-0.279-1.968-1.136C230.383,152.253,230.891,151.372,231.749,151.143z"/>
					<path style="opacity:0.8;fill:#FFFFFF;" d="M231.749,151.143c0.857-0.23,4.661-0.504,4.89,0.353
						c0.23,0.857-3.201,2.521-4.059,2.751c-0.857,0.23-1.739-0.279-1.968-1.136C230.383,152.253,230.891,151.372,231.749,151.143z"
						/>
				</g>
				<g>
					<path style="fill:#407BFF;" d="M243.138,151.418c-0.857,0.23-4.661,0.504-4.89-0.353c-0.23-0.857,3.201-2.521,4.058-2.751
						c0.857-0.23,1.738,0.279,1.968,1.136C244.504,150.307,243.995,151.189,243.138,151.418z"/>
					<path style="opacity:0.8;fill:#FFFFFF;" d="M243.138,151.418c-0.857,0.23-4.661,0.504-4.89-0.353
						c-0.23-0.857,3.201-2.521,4.058-2.751c0.857-0.23,1.738,0.279,1.968,1.136C244.504,150.307,243.995,151.189,243.138,151.418z"
						/>
				</g>
				<g>
					<path style="fill:#407BFF;" d="M234.477,156.143c0.23-0.857,1.894-4.288,2.751-4.059c0.857,0.23,0.583,4.033,0.353,4.89
						c-0.23,0.857-1.111,1.366-1.968,1.136C234.755,157.882,234.247,157,234.477,156.143z"/>
					<path style="opacity:0.8;fill:#FFFFFF;" d="M234.477,156.143c0.23-0.857,1.894-4.288,2.751-4.059
						c0.857,0.23,0.583,4.033,0.353,4.89c-0.23,0.857-1.111,1.366-1.968,1.136C234.755,157.882,234.247,157,234.477,156.143z"/>
				</g>
				<g>
					<path style="fill:#407BFF;" d="M240.41,146.418c-0.23,0.857-1.894,4.288-2.751,4.059c-0.857-0.23-0.583-4.033-0.353-4.89
						c0.23-0.857,1.111-1.366,1.968-1.136C240.131,144.679,240.64,145.561,240.41,146.418z"/>
					<path style="opacity:0.8;fill:#FFFFFF;" d="M240.41,146.418c-0.23,0.857-1.894,4.288-2.751,4.059
						c-0.857-0.23-0.583-4.033-0.353-4.89c0.23-0.857,1.111-1.366,1.968-1.136C240.131,144.679,240.64,145.561,240.41,146.418z"/>
				</g>
			</g>
			<g>
				<path style="fill:#407BFF;" d="M238.981,149.743c0.849,0.849,0.849,2.226,0,3.075c-0.849,0.849-2.226,0.849-3.075,0
					c-0.849-0.849-0.849-2.226,0-3.075C236.755,148.894,238.131,148.894,238.981,149.743z"/>
				<path style="opacity:0.4;fill:#FFFFFF;" d="M238.981,149.743c0.849,0.849,0.849,2.226,0,3.075c-0.849,0.849-2.226,0.849-3.075,0
					c-0.849-0.849-0.849-2.226,0-3.075C236.755,148.894,238.131,148.894,238.981,149.743z"/>
			</g>
		</g>
		<g>
			<g>
				<g>
					<path style="fill:#407BFF;" d="M102.784,305.556c0.628,0.628,2.767,3.784,2.139,4.412s-3.784-1.512-4.412-2.139
						c-0.628-0.628-0.628-1.645,0-2.273C101.138,304.928,102.156,304.928,102.784,305.556z"/>
					<path style="opacity:0.8;fill:#FFFFFF;" d="M102.784,305.556c0.628,0.628,2.767,3.784,2.139,4.412s-3.784-1.512-4.412-2.139
						c-0.628-0.628-0.628-1.645,0-2.273C101.138,304.928,102.156,304.928,102.784,305.556z"/>
				</g>
				<g>
					<path style="fill:#407BFF;" d="M108.239,315.557c-0.628-0.628-2.767-3.784-2.139-4.412c0.628-0.628,3.784,1.511,4.412,2.139
						c0.628,0.628,0.628,1.645,0,2.273S108.867,316.184,108.239,315.557z"/>
					<path style="opacity:0.8;fill:#FFFFFF;" d="M108.239,315.557c-0.628-0.628-2.767-3.784-2.139-4.412
						c0.628-0.628,3.784,1.511,4.412,2.139c0.628,0.628,0.628,1.645,0,2.273S108.867,316.184,108.239,315.557z"/>
				</g>
				<g>
					<path style="fill:#407BFF;" d="M99.817,310.418c0.857-0.23,4.661-0.504,4.89,0.353c0.23,0.857-3.201,2.521-4.058,2.751
						c-0.857,0.23-1.739-0.279-1.968-1.136C98.451,311.529,98.96,310.648,99.817,310.418z"/>
					<path style="opacity:0.8;fill:#FFFFFF;" d="M99.817,310.418c0.857-0.23,4.661-0.504,4.89,0.353
						c0.23,0.857-3.201,2.521-4.058,2.751c-0.857,0.23-1.739-0.279-1.968-1.136C98.451,311.529,98.96,310.648,99.817,310.418z"/>
				</g>
				<g>
					<path style="fill:#407BFF;" d="M111.206,310.694c-0.857,0.23-4.661,0.504-4.89-0.353c-0.23-0.857,3.201-2.522,4.058-2.751
						c0.857-0.23,1.739,0.279,1.968,1.136C112.572,309.583,112.063,310.464,111.206,310.694z"/>
					<path style="opacity:0.8;fill:#FFFFFF;" d="M111.206,310.694c-0.857,0.23-4.661,0.504-4.89-0.353
						c-0.23-0.857,3.201-2.522,4.058-2.751c0.857-0.23,1.739,0.279,1.968,1.136C112.572,309.583,112.063,310.464,111.206,310.694z"
						/>
				</g>
				<g>
					<path style="fill:#407BFF;" d="M102.545,315.419c0.23-0.857,1.894-4.288,2.751-4.058c0.857,0.23,0.583,4.033,0.353,4.89
						c-0.23,0.857-1.111,1.366-1.968,1.136C102.824,317.157,102.315,316.276,102.545,315.419z"/>
					<path style="opacity:0.8;fill:#FFFFFF;" d="M102.545,315.419c0.23-0.857,1.894-4.288,2.751-4.058
						c0.857,0.23,0.583,4.033,0.353,4.89c-0.23,0.857-1.111,1.366-1.968,1.136C102.824,317.157,102.315,316.276,102.545,315.419z"/>
				</g>
				<g>
					<path style="fill:#407BFF;" d="M108.478,305.694c-0.23,0.857-1.894,4.288-2.751,4.059c-0.857-0.23-0.583-4.033-0.353-4.89
						c0.23-0.857,1.111-1.366,1.968-1.136C108.199,303.955,108.708,304.836,108.478,305.694z"/>
					<path style="opacity:0.8;fill:#FFFFFF;" d="M108.478,305.694c-0.23,0.857-1.894,4.288-2.751,4.059
						c-0.857-0.23-0.583-4.033-0.353-4.89c0.23-0.857,1.111-1.366,1.968-1.136C108.199,303.955,108.708,304.836,108.478,305.694z"/>
				</g>
			</g>
			<g>
				<path style="fill:#407BFF;" d="M107.049,309.019c0.849,0.849,0.849,2.226,0,3.075c-0.849,0.849-2.226,0.849-3.075,0
					c-0.849-0.849-0.849-2.226,0-3.075C104.823,308.17,106.2,308.17,107.049,309.019z"/>
				<path style="opacity:0.4;fill:#FFFFFF;" d="M107.049,309.019c0.849,0.849,0.849,2.226,0,3.075c-0.849,0.849-2.226,0.849-3.075,0
					c-0.849-0.849-0.849-2.226,0-3.075C104.823,308.17,106.2,308.17,107.049,309.019z"/>
			</g>
		</g>
	</g>
</g>
<g id="Air_Balloon">
	<g>
		<path style="fill:#407BFF;" d="M359.607,267.443h-10.05c-1.456,0-2.587-1.268-2.421-2.714l0.685-5.997h13.522l0.685,5.997
			C362.194,266.175,361.063,267.443,359.607,267.443z"/>
		<g>
			<path style="fill:#263238;" d="M361.556,260.502h-13.947c-0.651,0-1.179-0.528-1.179-1.179v-1.254h16.306v1.254
				C362.735,259.974,362.207,260.502,361.556,260.502z"/>
			<g>
				<path style="fill:#263238;" d="M347.12,258.622c-0.21,0-0.409-0.119-0.503-0.322l-12.042-26.105
					c-0.128-0.277-0.006-0.605,0.271-0.734c0.279-0.127,0.606-0.007,0.734,0.271l12.042,26.105c0.128,0.276,0.007,0.605-0.271,0.733
					C347.276,258.606,347.198,258.622,347.12,258.622z"/>
			</g>
			<g>
				<path style="fill:#263238;" d="M362.044,258.622c-0.077,0-0.156-0.016-0.231-0.051c-0.277-0.129-0.399-0.457-0.271-0.733
					l12.042-26.105c0.129-0.278,0.457-0.4,0.734-0.271c0.277,0.129,0.399,0.457,0.271,0.734L362.547,258.3
					C362.454,258.503,362.253,258.622,362.044,258.622z"/>
			</g>
		</g>
		<g style="opacity:0.5;">
			<path style="fill:#FFFFFF;" d="M361.556,260.502h-13.947c-0.651,0-1.179-0.528-1.179-1.179v-1.254h16.306v1.254
				C362.735,259.974,362.207,260.502,361.556,260.502z"/>
			<g>
				<path style="fill:#FFFFFF;" d="M347.12,258.622c-0.21,0-0.409-0.119-0.503-0.322l-12.042-26.105
					c-0.128-0.277-0.006-0.605,0.271-0.734c0.279-0.127,0.606-0.007,0.734,0.271l12.042,26.105c0.128,0.276,0.007,0.605-0.271,0.733
					C347.276,258.606,347.198,258.622,347.12,258.622z"/>
			</g>
			<g>
				<path style="fill:#FFFFFF;" d="M362.044,258.622c-0.077,0-0.156-0.016-0.231-0.051c-0.277-0.129-0.399-0.457-0.271-0.733
					l12.042-26.105c0.129-0.278,0.457-0.4,0.734-0.271c0.277,0.129,0.399,0.457,0.271,0.734L362.547,258.3
					C362.454,258.503,362.253,258.622,362.044,258.622z"/>
			</g>
		</g>
		<g>
			<g>
				<defs>
					<path id="XMLID_1_" d="M354.582,205.804c-11.398,0-20.639,9.229-20.663,20.621l0.05,0.044c0,0,0,1.991,20.666,1.991
						c20.665,0,20.56-1.991,20.56-1.991l0.05-0.047C375.219,215.031,365.979,205.804,354.582,205.804z"/>
				</defs>
				<use xlink:href="#XMLID_1_"  style="overflow:visible;fill:#407BFF;"/>
				<clipPath id="XMLID_00000029004301181375916440000005804084294065797275_">
					<use xlink:href="#XMLID_1_"  style="overflow:visible;"/>
				</clipPath>
				<path style="opacity:0.7;clip-path:url(#XMLID_00000029004301181375916440000005804084294065797275_);fill:#407BFF;" d="
					M354.582,205.804c-11.398,0-20.639,9.229-20.663,20.621l0.05,0.044c0,0,0,1.991,20.666,1.991c20.665,0,20.56-1.991,20.56-1.991
					l0.05-0.047C375.219,215.031,365.979,205.804,354.582,205.804z"/>
			</g>
			<path style="fill:#407BFF;" d="M375.195,226.469c0,0,0.105,1.991-20.56,1.991c-20.666,0-20.666-1.991-20.666-1.991l-0.05-0.044
				c0,0.015-0.002,0.029-0.002,0.044c0,9.183,8.468,13.159,14.279,19.648c1.894,2.115,2.301,6.144,2.301,6.144h8.17
				c0,0,0.407-4.029,2.301-6.144c5.812-6.49,14.279-10.465,14.279-19.648c0-0.016-0.002-0.031-0.002-0.047L375.195,226.469z"/>
			<path style="opacity:0.5;fill:#FFFFFF;" d="M375.195,226.469c0,0,0.105,1.991-20.56,1.991c-20.666,0-20.666-1.991-20.666-1.991
				l-0.05-0.044c0,0.015-0.002,0.029-0.002,0.044c0,9.183,8.468,13.159,14.279,19.648c1.894,2.115,2.301,6.144,2.301,6.144h8.17
				c0,0,0.407-4.029,2.301-6.144c5.812-6.49,14.279-10.465,14.279-19.648c0-0.016-0.002-0.031-0.002-0.047L375.195,226.469z"/>
			<path style="opacity:0.5;fill:#FFFFFF;" d="M354.582,205.804c-4.948,0-8.96,9.252-8.96,20.665c0,0.637,0.021,1.243,0.055,1.832
				c2.444,0.098,5.386,0.159,8.957,0.159c3.524,0,6.432-0.059,8.852-0.155c0.034-0.59,0.055-1.198,0.055-1.836
				C363.542,215.056,359.53,205.804,354.582,205.804z"/>
			<g>
				<defs>
					<path id="XMLID_2_" d="M354.635,228.461c-3.572,0-6.513-0.061-8.957-0.159c0.452,7.909,3.791,11.776,6.136,17.816
						c0.821,2.115,0.998,6.144,0.998,6.144h3.542c0,0,0.176-4.029,0.997-6.144c2.345-6.039,5.683-9.906,6.136-17.812
						C361.067,228.402,358.159,228.461,354.635,228.461z"/>
				</defs>
				<use xlink:href="#XMLID_2_"  style="overflow:visible;fill:#407BFF;"/>
				<clipPath id="XMLID_00000111173530457627667680000000037970821191189156_">
					<use xlink:href="#XMLID_2_"  style="overflow:visible;"/>
				</clipPath>
				<path style="opacity:0.7;clip-path:url(#XMLID_00000111173530457627667680000000037970821191189156_);fill:#407BFF;" d="
					M354.635,228.461c-3.572,0-6.513-0.061-8.957-0.159c0.452,7.909,3.791,11.776,6.136,17.816c0.821,2.115,0.998,6.144,0.998,6.144
					h3.542c0,0,0.176-4.029,0.997-6.144c2.345-6.039,5.683-9.906,6.136-17.812C361.067,228.402,358.159,228.461,354.635,228.461z"/>
			</g>
		</g>
	</g>
</g>
<g id="Rocket">
	<g>
		<g>
			<path style="fill:#407BFF;" d="M254.215,146.377l41.437-8.233c0.639-0.127,1.171,0.493,0.947,1.105l-14.47,39.691
				c-0.219,0.6-1.003,0.743-1.419,0.257l-26.966-31.458C253.328,147.255,253.589,146.501,254.215,146.377z"/>
		</g>
		<g>
			<g>
				<polygon style="fill:#407BFF;" points="259.548,164.979 250.556,169.822 255.76,168.226 246.035,175.468 256.146,170.251 
					243.07,181.46 256.217,172.855 246.94,183.455 259.001,173.163 252.212,181.414 260.617,174.208 257.4,181.375 264.561,170.827 
									"/>
				<polygon style="opacity:0.5;fill:#FFFFFF;" points="263.552,169.65 257.848,176.582 260.618,174.208 264.561,170.827 				"/>
				<polygon style="opacity:0.8;fill:#FFFFFF;" points="252.577,178.624 263.358,169.423 260.712,166.337 256.146,170.251 
					248.706,176.629 261.854,168.024 				"/>
				<polygon style="opacity:0.3;fill:#FFFFFF;" points="260.495,166.084 259.548,164.979 258.539,165.522 254.313,168.67 
					255.76,168.226 254.442,169.207 				"/>
			</g>
			<g>
				<path style="fill:#263238;" d="M264.783,172.546l4.663-6.489l-4.437-5.176l-7.125,3.616
					C258.985,167.866,261.372,170.815,264.783,172.546z"/>
				<path style="opacity:0.2;fill:#FFFFFF;" d="M265.009,160.881c0,0-1.07,0.543-1.668,0.846c1.056,2.327,2.759,4.376,5.012,5.85
					l1.093-1.52L265.009,160.881z"/>
				<path style="opacity:0.4;fill:#FFFFFF;" d="M261.55,162.636c-0.452,0.229-0.907,0.46-1.339,0.679
					c1.235,2.854,3.312,5.359,6.095,7.109l0.876-1.219C264.853,167.371,262.959,165.131,261.55,162.636z"/>
			</g>
		</g>
		<path style="fill:#407BFF;" d="M270.96,169.751c-4.633-2.35-7.875-6.356-9.371-10.932l30.048-25.758
			c5.153-4.417,11.609-6.328,17.881-5.846c-0.482,6.272-3.357,12.36-8.51,16.777L270.96,169.751z"/>
		<path style="opacity:0.6;fill:#FFFFFF;" d="M270.96,169.751c-4.633-2.35-7.875-6.356-9.371-10.932l30.048-25.758
			c5.153-4.417,11.609-6.328,17.881-5.846c-0.482,6.272-3.357,12.36-8.51,16.777L270.96,169.751z"/>
		<g>
			<path style="fill:#407BFF;" d="M291.079,150.004c-2.223,1.905-5.569,1.648-7.474-0.575c-1.905-2.223-1.648-5.569,0.575-7.474
				c2.222-1.905,5.569-1.648,7.474,0.575C293.559,144.753,293.302,148.099,291.079,150.004z"/>
			<g>
				<path style="fill:#407BFF;" d="M283.605,149.43c-1.817-2.12-1.663-5.259,0.284-7.198c-0.107,0.079-0.214,0.157-0.317,0.245
					c-2.223,1.905-2.48,5.251-0.575,7.474c1.905,2.223,5.251,2.48,7.474,0.575c0.103-0.088,0.197-0.182,0.291-0.276
					C288.549,151.876,285.423,151.549,283.605,149.43z"/>
				<path style="opacity:0.3;" d="M283.605,149.43c-1.817-2.12-1.663-5.259,0.284-7.198c-0.107,0.079-0.214,0.157-0.317,0.245
					c-2.223,1.905-2.48,5.251-0.575,7.474c1.905,2.223,5.251,2.48,7.474,0.575c0.103-0.088,0.197-0.182,0.291-0.276
					C288.549,151.876,285.423,151.549,283.605,149.43z"/>
			</g>
			<path style="fill:#FFFFFF;" d="M290.069,148.826c-1.572,1.347-3.938,1.165-5.285-0.406c-1.347-1.572-1.165-3.938,0.406-5.285
				c1.572-1.347,3.938-1.165,5.285,0.406C291.822,145.112,291.64,147.478,290.069,148.826z"/>
			<g>
				<g>
					<path style="fill:#407BFF;" d="M284.671,148.257l6.48-3.533c-0.14-0.392-0.345-0.766-0.622-1.106l-6.461,3.523
						C284.196,147.536,284.405,147.911,284.671,148.257z"/>
					<path style="fill:#407BFF;" d="M285.729,149.191l5.635-3.073c0.009-0.234-0.004-0.468-0.039-0.701l-6.164,3.361
						C285.34,148.936,285.529,149.073,285.729,149.191z"/>
				</g>
				<g style="opacity:0.7;">
					<path style="fill:#FFFFFF;" d="M284.671,148.257l6.48-3.533c-0.14-0.392-0.345-0.766-0.622-1.106l-6.461,3.523
						C284.196,147.536,284.405,147.911,284.671,148.257z"/>
					<path style="fill:#FFFFFF;" d="M285.729,149.191l5.635-3.073c0.009-0.234-0.004-0.468-0.039-0.701l-6.164,3.361
						C285.34,148.936,285.529,149.073,285.729,149.191z"/>
				</g>
			</g>
		</g>
	</g>
</g>
<g id="Pegasus">
	<g>
		<g>
			<path style="fill:#407BFF;" d="M143.29,155.303c-1.189,1.645-4.479,4.93-6.736,4.53c-2.257-0.4-11.571-3.53-11.571-3.53
				l-3.019,4.895c0,0-0.583,1.964,0.938,2.44l1.551,0.132c0,0,0.801,4.06-1.055,6.297l-3.054-3.279c0,0-2.277-3.838-1.525-5.336
				c0.752-1.498,4.242-9.497,5.687-9.34c1.445,0.157,7.737,2.08,8.789-0.504c1.052-2.583,7.617-7.545,10.726-4.921
				C146.956,149.164,144.557,153.551,143.29,155.303z"/>
			<path style="opacity:0.3;fill:#FFFFFF;" d="M143.29,155.303c-1.189,1.645-4.479,4.93-6.736,4.53
				c-2.257-0.4-11.571-3.53-11.571-3.53l-3.019,4.895c0,0-0.583,1.964,0.938,2.44l1.551,0.132c0,0,0.801,4.06-1.055,6.297
				l-3.054-3.279c0,0-2.277-3.838-1.525-5.336c0.752-1.498,4.242-9.497,5.687-9.34c1.445,0.157,7.737,2.08,8.789-0.504
				c1.052-2.583,7.617-7.545,10.726-4.921C146.956,149.164,144.557,153.551,143.29,155.303z"/>
			<path style="fill:#407BFF;" d="M192.142,181.227c0,0,0.632-3.511-1.735-4.492c-2.368-0.981-2.74-4.466-3.334-7.97
				c-0.594-3.504-9.109-5.563-6.088-9.652c0.27-0.366,0.082-0.859,0.309-1.382l-8.158-1.957l-7.105,6.221
				c2.161,2.243,5.909,5.504,10.055,6.284c6.469,1.218,6.39,4.776,9.063,11.353s9.397,10.044,9.397,10.044
				C197.882,183.162,192.142,181.227,192.142,181.227z"/>
			<path style="opacity:0.2;fill:#FFFFFF;" d="M192.142,181.227c0,0,0.632-3.511-1.735-4.492c-2.368-0.981-2.74-4.466-3.334-7.97
				c-0.594-3.504-9.109-5.563-6.088-9.652c0.27-0.366,0.082-0.859,0.309-1.382l-8.158-1.957l-7.105,6.221
				c2.161,2.243,5.909,5.504,10.055,6.284c6.469,1.218,6.39,4.776,9.063,11.353s9.397,10.044,9.397,10.044
				C197.882,183.162,192.142,181.227,192.142,181.227z"/>
			<g>
				<path style="fill:#407BFF;" d="M187.485,162.375c0,0,0.825,5.219,2.397,8.443c0.839,0.63,1.74,1.093,2.586,1.434
					c-0.685-1.185-1.38-2.714-1.628-4.356c0,0,1.025,2.67,3.079,4.849c1.222,0.342,2.101,0.419,2.101,0.419
					s-2.988-3.299-4.079-8.822c-1.091-5.524,4.305-10.468,0.083-18.477c-4.222-8.008-14.958-0.527-14.958-0.527l1.897,1.275
					c9.327,1.237,6.36,12.572,7.726,19.223c0.303,1.474,0.93,2.654,1.723,3.599C187.969,167.814,187.236,164.678,187.485,162.375z"
					/>
				<path style="opacity:0.3;fill:#FFFFFF;" d="M187.485,162.375c0,0,0.825,5.219,2.397,8.443c0.839,0.63,1.74,1.093,2.586,1.434
					c-0.685-1.185-1.38-2.714-1.628-4.356c0,0,1.025,2.67,3.079,4.849c1.222,0.342,2.101,0.419,2.101,0.419
					s-2.988-3.299-4.079-8.822c-1.091-5.524,4.305-10.468,0.083-18.477c-4.222-8.008-14.958-0.527-14.958-0.527l1.897,1.275
					c9.327,1.237,6.36,12.572,7.726,19.223c0.303,1.474,0.93,2.654,1.723,3.599C187.969,167.814,187.236,164.678,187.485,162.375z"
					/>
			</g>
			<path style="fill:#407BFF;" d="M146.567,138.032c0,0,3.95,7.279,21.142,5.545c17.192-1.734,16.127,13.438,13.106,17.526
				c-3.021,4.088,5.494,6.148,6.088,9.652c0.594,3.504,0.966,6.989,3.334,7.97c2.368,0.981,1.735,4.492,1.735,4.492
				s5.74,1.935,2.402,8.448c0,0-6.724-3.467-9.397-10.044s-2.593-10.135-9.063-11.353c-6.469-1.218-11.98-8.481-11.98-8.481
				s-13.512,4.312-25.037-0.343c-11.525-4.655-14.981-11.187-12.013-17.285c2.969-6.098,6.287-13.689,4.822-16.116
				c0,0-4.668-0.136-5.753-1.788l-2.876-0.244c0,0-4.304,3.46-6.358,0.092c0,0-3.178-5.877,1.742-6.091l8.327-3.601
				c0,0,6.063-4.499,10.051-1.598C136.841,114.814,148.199,120.123,146.567,138.032z"/>
			<path style="opacity:0.6;fill:#FFFFFF;" d="M146.567,138.032c0,0,3.95,7.279,21.142,5.545
				c17.192-1.734,16.127,13.438,13.106,17.526c-3.021,4.088,5.494,6.148,6.088,9.652c0.594,3.504,0.966,6.989,3.334,7.97
				c2.368,0.981,1.735,4.492,1.735,4.492s5.74,1.935,2.402,8.448c0,0-6.724-3.467-9.397-10.044s-2.593-10.135-9.063-11.353
				c-6.469-1.218-11.98-8.481-11.98-8.481s-13.512,4.312-25.037-0.343c-11.525-4.655-14.981-11.187-12.013-17.285
				c2.969-6.098,6.287-13.689,4.822-16.116c0,0-4.668-0.136-5.753-1.788l-2.876-0.244c0,0-4.304,3.46-6.358,0.092
				c0,0-3.178-5.877,1.742-6.091l8.327-3.601c0,0,6.063-4.499,10.051-1.598C136.841,114.814,148.199,120.123,146.567,138.032z"/>
			<path style="opacity:0.1;" d="M140.628,153.756l-1.074-3.092l-2.205,1.477l-7.12,4.303c2.092,1.81,4.961,3.503,8.67,5.001
				c5.423,2.19,11.285,2.395,15.973,1.998C138.567,162.058,140.628,153.756,140.628,153.756z"/>
			<path style="opacity:0.5;fill:#263238;" d="M117.131,121.274c0,0,0.456,0.987-0.478,1.259
				C116.652,122.533,119.08,122.813,117.131,121.274z"/>
			<path style="opacity:0.1;" d="M159.469,158.409c-1.813,0.358,2.448,4.157-4.597,5.034c5.275-0.447,9.063-1.655,9.063-1.655
				S161.282,158.051,159.469,158.409z"/>
			<g>
				<path style="fill:#407BFF;" d="M129.62,110.191c2.282-2.034,15.544,3.86,17.54,15.6c1.225,7.202-1.923,11.274-1.923,11.274
					s1.221-4.767,0.444-8.726c-0.777-3.959-3.276-7.779-3.276-7.779s0.885,1.821,0.22,3.528c0,0,0.333-3.926-3.083-6.556
					c-3.416-2.63-6.145-3.307-6.145-3.307s-1.499,1.002-2.717,0.17L129.62,110.191z"/>
				<path style="opacity:0.3;fill:#FFFFFF;" d="M129.62,110.191c2.282-2.034,15.544,3.86,17.54,15.6
					c1.225,7.202-1.923,11.274-1.923,11.274s1.221-4.767,0.444-8.726c-0.777-3.959-3.276-7.779-3.276-7.779s0.885,1.821,0.22,3.528
					c0,0,0.333-3.926-3.083-6.556c-3.416-2.63-6.145-3.307-6.145-3.307s-1.499,1.002-2.717,0.17L129.62,110.191z"/>
			</g>
			<path style="fill:#263238;" d="M128.692,117.437c-0.115,0.271-0.351,0.429-0.528,0.352c-0.177-0.077-0.227-0.359-0.113-0.63
				c0.115-0.271,0.351-0.429,0.528-0.352S128.807,117.166,128.692,117.437z"/>
			<path style="fill:#263238;" d="M129.719,116.086c-0.043,0.042-0.108,0.06-0.17,0.042c-0.744-0.216-1.235,0.19-1.24,0.194
				c-0.073,0.062-0.183,0.053-0.245-0.019c-0.062-0.072-0.054-0.181,0.019-0.243c0.026-0.022,0.641-0.531,1.564-0.263
				c0.092,0.027,0.145,0.123,0.118,0.214C129.755,116.041,129.739,116.066,129.719,116.086z"/>
			<path style="fill:#263238;" d="M119.248,126.087c-0.043,0.042-0.108,0.06-0.17,0.042c-0.744-0.216-1.236,0.19-1.24,0.194
				c-0.073,0.062-0.183,0.053-0.245-0.019c-0.062-0.072-0.053-0.181,0.019-0.243c0.026-0.022,0.641-0.532,1.564-0.263
				c0.092,0.027,0.145,0.122,0.118,0.214C119.285,126.041,119.269,126.067,119.248,126.087z"/>
			<g>
				<g>
					<path style="fill:#407BFF;" d="M133.147,115.021c0,0-3.148-0.973-1.135-4.998C132.011,110.022,136.396,115.347,133.147,115.021
						z"/>
					<path style="opacity:0.5;fill:#FFFFFF;" d="M133.147,115.021c0,0-3.148-0.973-1.135-4.998
						C132.011,110.022,136.396,115.347,133.147,115.021z"/>
				</g>
				<path style="opacity:0.2;" d="M132.833,113.416c-0.923-0.968-1.24-2.383-1.241-2.389c-0.672,2.028,0.141,3.092,0.821,3.597
					c0.015,0.011,0.031,0.022,0.046,0.033C133.408,115.343,133.758,114.386,132.833,113.416z"/>
			</g>
			<g>
				<path style="fill:#407BFF;" d="M139.801,156.063c-1.272,1.76-4.792,5.275-7.207,4.847c-2.415-0.428-12.379-3.777-12.379-3.777
					l-3.23,5.237c0,0-0.624,2.101,1.004,2.61l1.659,0.141c0,0,0.857,4.343-1.129,6.737l-3.267-3.508c0,0-2.437-4.106-1.632-5.709
					c0.804-1.603,4.539-10.161,6.084-9.993c1.545,0.168,8.278,2.225,9.404-0.539c1.126-2.764,8.149-8.072,11.476-5.265
					C143.723,149.495,141.155,154.188,139.801,156.063z"/>
				<path style="opacity:0.6;fill:#FFFFFF;" d="M139.801,156.063c-1.272,1.76-4.792,5.275-7.207,4.847
					c-2.415-0.428-12.379-3.777-12.379-3.777l-3.23,5.237c0,0-0.624,2.101,1.004,2.61l1.659,0.141c0,0,0.857,4.343-1.129,6.737
					l-3.267-3.508c0,0-2.437-4.106-1.632-5.709c0.804-1.603,4.539-10.161,6.084-9.993c1.545,0.168,8.278,2.225,9.404-0.539
					c1.126-2.764,8.149-8.072,11.476-5.265C143.723,149.495,141.155,154.188,139.801,156.063z"/>
			</g>
		</g>
		<path style="fill:#407BFF;" d="M146.516,140.731c0,0,10.424-6.32,6.867-16.38c-3.557-10.06,11.214-19.267,32.012-26.702
			c0,0,2.842,7.173-15.015,13.094l13.736-2.489c0,0-2.176,9.106-16.45,9.578l11.553,2.135c0,0-3.337,6.242-13.487,3.49l6.588,4.971
			c0,0-2.067,3.358-5.701,1.724C166.621,130.151,165.935,151.832,146.516,140.731z"/>
		<path style="opacity:0.6;fill:#FFFFFF;" d="M146.516,140.731c0,0,10.424-6.32,6.867-16.38
			c-3.557-10.06,11.214-19.267,32.012-26.702c0,0,2.842,7.173-15.015,13.094l13.736-2.489c0,0-2.176,9.106-16.45,9.578l11.553,2.135
			c0,0-3.337,6.242-13.487,3.49l6.588,4.971c0,0-2.067,3.358-5.701,1.724C166.621,130.151,165.935,151.832,146.516,140.731z"/>
		<path style="opacity:0.2;fill:#263238;" d="M164.136,110.528c0,0,4.997,1.27,0.131,5.885c0,0,3.162,2.839-2.492,7.085
			c0,0,3.582,1.605-0.557,6.558c0,0,5.855-3.651,1.709-6.776c0,0,5.986-4.443,2.465-6.772
			C165.393,116.509,171.211,111.065,164.136,110.528z"/>
		<path style="opacity:0.2;fill:#263238;" d="M159.307,115.52c0,0,3.017,0.767,0.079,3.553c0,0,1.909,1.714-1.504,4.277
			c0,0,2.162,0.969-0.336,3.959c0,0,3.535-2.204,1.032-4.09c0,0,3.614-2.682,1.488-4.088
			C160.065,119.131,163.578,115.845,159.307,115.52z"/>
	</g>
</g>
</svg>
