<?xml version="1.0" encoding="utf-8"?>
<!-- Generator: Adobe Illustrator 27.5.0, SVG Export Plug-In . SVG Version: 6.00 Build 0)  -->
<svg version="1.1" xmlns="http://www.w3.org/2000/svg" xmlns:xlink="http://www.w3.org/1999/xlink" x="0px" y="0px"
	 viewBox="0 0 500 500" style="enable-background:new 0 0 500 500;" xml:space="preserve">
<g id="Background_Complete">
	<g>
		<rect y="382.398" style="fill:#EBEBEB;" width="500" height="0.25"/>
		<rect x="64.667" y="391.922" style="fill:#EBEBEB;" width="20.914" height="0.25"/>
		<rect x="171.14" y="389.208" style="fill:#EBEBEB;" width="24.193" height="0.25"/>
		<rect x="118.808" y="395.181" style="fill:#EBEBEB;" width="19.192" height="0.25"/>
		<rect x="422" y="399.528" style="fill:#EBEBEB;" width="27.901" height="0.25"/>
		<rect x="387.708" y="392.172" style="fill:#EBEBEB;" width="21.625" height="0.25"/>
		<rect x="277.213" y="395.306" style="fill:#EBEBEB;" width="48.454" height="0.25"/>
		<path style="fill:#EBEBEB;" d="M237.014,337.8H43.915c-3.147,0-5.708-2.561-5.708-5.708V60.66c0-3.147,2.561-5.708,5.708-5.708
			h193.099c3.146,0,5.707,2.561,5.707,5.708v271.432C242.721,335.239,240.16,337.8,237.014,337.8z M43.915,55.203
			c-3.01,0-5.458,2.448-5.458,5.458v271.432c0,3.01,2.448,5.458,5.458,5.458h193.099c3.009,0,5.457-2.448,5.457-5.458V60.66
			c0-3.009-2.448-5.458-5.457-5.458H43.915z"/>
		<path style="fill:#EBEBEB;" d="M453.31,337.8H260.212c-3.147,0-5.707-2.561-5.707-5.708V60.66c0-3.147,2.561-5.708,5.707-5.708
			H453.31c3.148,0,5.708,2.561,5.708,5.708v271.432C459.019,335.239,456.458,337.8,453.31,337.8z M260.212,55.203
			c-3.009,0-5.457,2.448-5.457,5.458v271.432c0,3.01,2.448,5.458,5.457,5.458H453.31c3.01,0,5.458-2.448,5.458-5.458V60.66
			c0-3.009-2.448-5.458-5.458-5.458H260.212z"/>
	</g>
	<g>
		<g>
			<g>
				
					<rect x="64.667" y="92.333" transform="matrix(-1 -1.224647e-16 1.224647e-16 -1 372.3478 474.7317)" style="fill:#F0F0F0;" width="243.014" height="290.065"/>
				
					<rect x="64.667" y="92.333" transform="matrix(-1 -1.224647e-16 1.224647e-16 -1 152.6811 474.7317)" style="fill:#E0E0E0;" width="23.348" height="290.065"/>
				
					<rect x="91.903" y="100.555" transform="matrix(-1 -1.224647e-16 1.224647e-16 -1 395.6955 248.8793)" style="fill:#EBEBEB;" width="211.889" height="47.768"/>
				
					<rect x="280.025" y="100.556" transform="matrix(-1 -1.224647e-16 1.224647e-16 -1 583.8176 248.8801)" style="fill:#E6E6E6;" width="23.767" height="47.768"/>
				
					<rect x="91.903" y="156.558" transform="matrix(-1 -1.224647e-16 1.224647e-16 -1 395.6955 360.8841)" style="fill:#EBEBEB;" width="211.889" height="47.768"/>
				
					<rect x="280.025" y="156.558" transform="matrix(-1 -1.224647e-16 1.224647e-16 -1 583.8176 360.8849)" style="fill:#E6E6E6;" width="23.767" height="47.768"/>
				
					<rect x="91.903" y="212.56" transform="matrix(-1 -1.224647e-16 1.224647e-16 -1 395.6955 472.8889)" style="fill:#EBEBEB;" width="211.889" height="47.768"/>
				
					<rect x="280.025" y="212.561" transform="matrix(-1 -1.224647e-16 1.224647e-16 -1 583.8176 472.8896)" style="fill:#E6E6E6;" width="23.767" height="47.768"/>
				
					<rect x="91.903" y="268.563" transform="matrix(-1 -1.224647e-16 1.224647e-16 -1 395.6955 584.8936)" style="fill:#EBEBEB;" width="211.889" height="47.768"/>
				
					<rect x="280.025" y="268.563" transform="matrix(-1 -1.224647e-16 1.224647e-16 -1 583.8176 584.8944)" style="fill:#E6E6E6;" width="23.767" height="47.768"/>
				
					<rect x="91.903" y="324.565" transform="matrix(-1 -1.224647e-16 1.224647e-16 -1 395.6955 696.8984)" style="fill:#EBEBEB;" width="211.889" height="47.768"/>
				
					<rect x="280.025" y="324.565" transform="matrix(-1 -1.224647e-16 1.224647e-16 -1 583.8176 696.8992)" style="fill:#E6E6E6;" width="23.767" height="47.768"/>
			</g>
			<g>
				<g>
					<rect x="270.333" y="112.167" style="fill:#FAFAFA;" width="12.656" height="36.157"/>
					
						<rect x="247.25" y="112.167" transform="matrix(-1 -1.224647e-16 1.224647e-16 -1 517.5833 260.4905)" style="fill:#E6E6E6;" width="23.083" height="36.157"/>
					<rect x="260.667" y="112.167" style="fill:#FAFAFA;" width="8.833" height="36.157"/>
					
						<rect x="237.583" y="112.167" transform="matrix(-1 -1.224647e-16 1.224647e-16 -1 498.25 260.4905)" style="fill:#E6E6E6;" width="23.083" height="36.157"/>
					<rect x="250.957" y="112.167" style="fill:#FAFAFA;" width="8.833" height="36.157"/>
					
						<rect x="227.874" y="112.167" transform="matrix(-1 -1.224647e-16 1.224647e-16 -1 478.8303 260.4905)" style="fill:#E6E6E6;" width="23.083" height="36.157"/>
				</g>
				<rect x="238.542" y="116.778" style="fill:#FAFAFA;" width="6.458" height="31.546"/>
				
					<rect x="221.667" y="116.778" transform="matrix(-1 -1.224647e-16 1.224647e-16 -1 460.2089 265.1016)" style="fill:#E6E6E6;" width="16.875" height="31.546"/>
				<rect x="145.653" y="168.169" style="fill:#FAFAFA;" width="8.833" height="36.157"/>
				
					<rect x="122.57" y="168.169" transform="matrix(-1 -1.224647e-16 1.224647e-16 -1 268.2233 372.4952)" style="fill:#E6E6E6;" width="23.083" height="36.157"/>
				<rect x="135.987" y="168.169" style="fill:#FAFAFA;" width="8.833" height="36.157"/>
				
					<rect x="112.903" y="168.169" transform="matrix(-1 -1.224647e-16 1.224647e-16 -1 248.89 372.4952)" style="fill:#E6E6E6;" width="23.083" height="36.157"/>
				<rect x="126.277" y="168.169" style="fill:#FAFAFA;" width="8.833" height="36.157"/>
				
					<rect x="103.193" y="168.169" transform="matrix(-1 -1.224647e-16 1.224647e-16 -1 229.4703 372.4952)" style="fill:#E6E6E6;" width="23.083" height="36.157"/>
				<rect x="113.862" y="172.78" style="fill:#FAFAFA;" width="6.458" height="31.546"/>
				
					<rect x="96.987" y="172.78" transform="matrix(-1 -1.224647e-16 1.224647e-16 -1 210.8489 377.1064)" style="fill:#E6E6E6;" width="16.875" height="31.546"/>
				<rect x="174.403" y="224.171" style="fill:#FAFAFA;" width="8.833" height="36.157"/>
				
					<rect x="151.32" y="224.171" transform="matrix(-1 -1.224647e-16 1.224647e-16 -1 325.7233 484.5)" style="fill:#E6E6E6;" width="23.083" height="36.157"/>
				<rect x="164.737" y="224.171" style="fill:#FAFAFA;" width="8.833" height="36.157"/>
				
					<rect x="141.653" y="224.171" transform="matrix(-1 -1.224647e-16 1.224647e-16 -1 306.39 484.5)" style="fill:#E6E6E6;" width="23.083" height="36.157"/>
				<rect x="155.027" y="224.171" style="fill:#FAFAFA;" width="8.833" height="36.157"/>
				
					<rect x="131.943" y="224.171" transform="matrix(-1 -1.224647e-16 1.224647e-16 -1 286.9703 484.5)" style="fill:#E6E6E6;" width="23.083" height="36.157"/>
				<rect x="142.612" y="228.783" style="fill:#FAFAFA;" width="6.458" height="31.546"/>
				
					<rect x="125.737" y="228.783" transform="matrix(-1 -1.224647e-16 1.224647e-16 -1 268.3489 489.1111)" style="fill:#E6E6E6;" width="16.875" height="31.546"/>
				<rect x="234.64" y="336.176" style="fill:#FAFAFA;" width="8.833" height="36.157"/>
				
					<rect x="211.557" y="336.176" transform="matrix(-1 -1.224647e-16 1.224647e-16 -1 446.1967 708.5095)" style="fill:#E6E6E6;" width="23.083" height="36.157"/>
				<rect x="224.973" y="336.176" style="fill:#FAFAFA;" width="8.833" height="36.157"/>
				
					<rect x="201.89" y="336.176" transform="matrix(-1 -1.224647e-16 1.224647e-16 -1 426.8633 708.5095)" style="fill:#E6E6E6;" width="23.083" height="36.157"/>
				<rect x="215.263" y="336.176" style="fill:#FAFAFA;" width="8.833" height="36.157"/>
				
					<rect x="192.18" y="336.176" transform="matrix(-1 -1.224647e-16 1.224647e-16 -1 407.4435 708.5095)" style="fill:#E6E6E6;" width="23.083" height="36.157"/>
				<rect x="202.849" y="340.787" style="fill:#FAFAFA;" width="6.458" height="31.546"/>
				
					<rect x="185.973" y="340.787" transform="matrix(-1 -1.224647e-16 1.224647e-16 -1 388.8222 713.1206)" style="fill:#E6E6E6;" width="16.876" height="31.546"/>
				<g>
					<g>
						<rect x="219.979" y="106.833" style="fill:#F5F5F5;" width="4.409" height="41.491"/>
						
							<rect x="200.339" y="106.833" transform="matrix(-1 -1.224647e-16 1.224647e-16 -1 420.3175 255.1571)" style="fill:#E0E0E0;" width="19.64" height="41.491"/>
					</g>
					<g>
						<rect x="214.718" y="106.833" style="fill:#F5F5F5;" width="4.409" height="41.491"/>
						
							<rect x="195.077" y="106.833" transform="matrix(-1 -1.224647e-16 1.224647e-16 -1 409.7952 255.1571)" style="fill:#E0E0E0;" width="19.64" height="41.491"/>
					</g>
					<g>
						<rect x="209.456" y="106.833" style="fill:#F5F5F5;" width="4.409" height="41.491"/>
						
							<rect x="189.816" y="106.833" transform="matrix(-1 -1.224647e-16 1.224647e-16 -1 399.2728 255.1571)" style="fill:#E0E0E0;" width="19.64" height="41.491"/>
					</g>
					<g>
						<rect x="204.195" y="106.833" style="fill:#F5F5F5;" width="4.409" height="41.491"/>
						
							<rect x="184.555" y="106.833" transform="matrix(-1 -1.224647e-16 1.224647e-16 -1 388.7505 255.1571)" style="fill:#E0E0E0;" width="19.64" height="41.491"/>
					</g>
					<g>
						<rect x="198.934" y="106.833" style="fill:#F5F5F5;" width="4.409" height="41.491"/>
						
							<rect x="179.294" y="106.833" transform="matrix(-1 -1.224647e-16 1.224647e-16 -1 378.2282 255.1571)" style="fill:#E0E0E0;" width="19.64" height="41.491"/>
					</g>
					<g>
						<rect x="193.673" y="106.833" style="fill:#F5F5F5;" width="4.409" height="41.491"/>
						
							<rect x="174.033" y="106.833" transform="matrix(-1 -1.224647e-16 1.224647e-16 -1 367.7058 255.1571)" style="fill:#E0E0E0;" width="19.64" height="41.491"/>
					</g>
					<g>
						<rect x="188.412" y="106.833" style="fill:#F5F5F5;" width="4.409" height="41.491"/>
						
							<rect x="168.772" y="106.833" transform="matrix(-1 -1.224647e-16 1.224647e-16 -1 357.1835 255.1571)" style="fill:#E0E0E0;" width="19.64" height="41.491"/>
					</g>
					<g>
						<rect x="183.151" y="106.833" style="fill:#F5F5F5;" width="4.409" height="41.491"/>
						
							<rect x="163.51" y="106.833" transform="matrix(-1 -1.224647e-16 1.224647e-16 -1 346.6612 255.1571)" style="fill:#E0E0E0;" width="19.64" height="41.491"/>
					</g>
					<g>
						<rect x="177.889" y="106.833" style="fill:#F5F5F5;" width="4.409" height="41.491"/>
						
							<rect x="158.249" y="106.833" transform="matrix(-1 -1.224647e-16 1.224647e-16 -1 336.1388 255.1571)" style="fill:#E0E0E0;" width="19.64" height="41.491"/>
					</g>
					<g>
						<rect x="172.628" y="106.833" style="fill:#F5F5F5;" width="4.409" height="41.491"/>
						
							<rect x="152.988" y="106.833" transform="matrix(-1 -1.224647e-16 1.224647e-16 -1 325.6165 255.1571)" style="fill:#E0E0E0;" width="19.64" height="41.491"/>
					</g>
					<g>
						<rect x="167.367" y="106.833" style="fill:#F5F5F5;" width="4.409" height="41.491"/>
						
							<rect x="147.727" y="106.833" transform="matrix(-1 -1.224647e-16 1.224647e-16 -1 315.0942 255.1571)" style="fill:#E0E0E0;" width="19.64" height="41.491"/>
					</g>
					<g>
						<rect x="162.106" y="106.833" style="fill:#F5F5F5;" width="4.409" height="41.491"/>
						
							<rect x="142.466" y="106.833" transform="matrix(-1 -1.224647e-16 1.224647e-16 -1 304.5718 255.1571)" style="fill:#E0E0E0;" width="19.64" height="41.491"/>
					</g>
					<g>
						<rect x="156.845" y="106.833" style="fill:#F5F5F5;" width="4.409" height="41.491"/>
						
							<rect x="137.205" y="106.833" transform="matrix(-1 -1.224647e-16 1.224647e-16 -1 294.0494 255.1571)" style="fill:#E0E0E0;" width="19.64" height="41.491"/>
					</g>
					<g>
						<rect x="151.584" y="106.833" style="fill:#F5F5F5;" width="4.409" height="41.491"/>
						
							<rect x="131.943" y="106.833" transform="matrix(-1 -1.224647e-16 1.224647e-16 -1 283.5272 255.1571)" style="fill:#E0E0E0;" width="19.64" height="41.491"/>
					</g>
				</g>
				<g>
					<g>
						<rect x="285.286" y="274.841" style="fill:#F5F5F5;" width="4.409" height="41.49"/>
						
							<rect x="265.646" y="274.841" transform="matrix(-1 -1.224647e-16 1.224647e-16 -1 550.9328 591.1714)" style="fill:#E0E0E0;" width="19.64" height="41.49"/>
					</g>
					<g>
						<rect x="280.025" y="274.841" style="fill:#F5F5F5;" width="4.409" height="41.49"/>
						
							<rect x="260.385" y="274.841" transform="matrix(-1 -1.224647e-16 1.224647e-16 -1 540.4104 591.1714)" style="fill:#E0E0E0;" width="19.64" height="41.49"/>
					</g>
					<g>
						<rect x="274.764" y="274.841" style="fill:#F5F5F5;" width="4.409" height="41.49"/>
						
							<rect x="255.124" y="274.841" transform="matrix(-1 -1.224647e-16 1.224647e-16 -1 529.8882 591.1714)" style="fill:#E0E0E0;" width="19.64" height="41.49"/>
					</g>
					<g>
						<rect x="269.503" y="274.841" style="fill:#F5F5F5;" width="4.409" height="41.49"/>
						
							<rect x="249.863" y="274.841" transform="matrix(-1 -1.224647e-16 1.224647e-16 -1 519.3658 591.1714)" style="fill:#E0E0E0;" width="19.64" height="41.49"/>
					</g>
					<g>
						<rect x="264.242" y="274.841" style="fill:#F5F5F5;" width="4.409" height="41.49"/>
						
							<rect x="244.602" y="274.841" transform="matrix(-1 -1.224647e-16 1.224647e-16 -1 508.8434 591.1714)" style="fill:#E0E0E0;" width="19.64" height="41.49"/>
					</g>
					<g>
						<rect x="258.981" y="274.841" style="fill:#F5F5F5;" width="4.409" height="41.49"/>
						
							<rect x="239.34" y="274.841" transform="matrix(-1 -1.224647e-16 1.224647e-16 -1 498.3211 591.1714)" style="fill:#E0E0E0;" width="19.64" height="41.49"/>
					</g>
					<g>
						<rect x="253.719" y="274.841" style="fill:#F5F5F5;" width="4.409" height="41.49"/>
						
							<rect x="234.079" y="274.841" transform="matrix(-1 -1.224647e-16 1.224647e-16 -1 487.7988 591.1714)" style="fill:#E0E0E0;" width="19.64" height="41.49"/>
					</g>
					<g>
						<rect x="248.458" y="274.841" style="fill:#F5F5F5;" width="4.409" height="41.49"/>
						
							<rect x="228.818" y="274.841" transform="matrix(-1 -1.224647e-16 1.224647e-16 -1 477.2764 591.1714)" style="fill:#E0E0E0;" width="19.64" height="41.49"/>
					</g>
					<g>
						<rect x="243.197" y="274.841" style="fill:#F5F5F5;" width="4.409" height="41.49"/>
						
							<rect x="223.557" y="274.841" transform="matrix(-1 -1.224647e-16 1.224647e-16 -1 466.7541 591.1714)" style="fill:#E0E0E0;" width="19.64" height="41.49"/>
					</g>
					<g>
						<rect x="237.936" y="274.841" style="fill:#F5F5F5;" width="4.409" height="41.49"/>
						
							<rect x="218.296" y="274.841" transform="matrix(-1 -1.224647e-16 1.224647e-16 -1 456.2318 591.1714)" style="fill:#E0E0E0;" width="19.64" height="41.49"/>
					</g>
					<g>
						<rect x="232.675" y="274.841" style="fill:#F5F5F5;" width="4.409" height="41.49"/>
						
							<rect x="213.035" y="274.841" transform="matrix(-1 -1.224647e-16 1.224647e-16 -1 445.7094 591.1714)" style="fill:#E0E0E0;" width="19.64" height="41.49"/>
					</g>
					<g>
						<rect x="227.414" y="274.841" style="fill:#F5F5F5;" width="4.409" height="41.49"/>
						
							<rect x="207.773" y="274.841" transform="matrix(-1 -1.224647e-16 1.224647e-16 -1 435.1871 591.1714)" style="fill:#E0E0E0;" width="19.64" height="41.49"/>
					</g>
					<g>
						<rect x="222.152" y="274.841" style="fill:#F5F5F5;" width="4.409" height="41.49"/>
						
							<rect x="202.512" y="274.841" transform="matrix(-1 -1.224647e-16 1.224647e-16 -1 424.6648 591.1714)" style="fill:#E0E0E0;" width="19.64" height="41.49"/>
					</g>
					<g>
						<rect x="216.891" y="274.841" style="fill:#F5F5F5;" width="4.409" height="41.49"/>
						
							<rect x="197.251" y="274.841" transform="matrix(-1 -1.224647e-16 1.224647e-16 -1 414.1424 591.1714)" style="fill:#E0E0E0;" width="19.64" height="41.49"/>
					</g>
				</g>
				<g>
					<g>
						<rect x="176.994" y="337.55" style="fill:#F5F5F5;" width="3.228" height="34.784"/>
						
							<rect x="162.612" y="337.55" transform="matrix(-1 -1.224647e-16 1.224647e-16 -1 339.6057 709.8831)" style="fill:#E0E0E0;" width="14.382" height="34.784"/>
					</g>
					<g>
						<rect x="173.141" y="337.55" style="fill:#F5F5F5;" width="3.228" height="34.784"/>
						
							<rect x="158.76" y="337.55" transform="matrix(-1 -1.224647e-16 1.224647e-16 -1 331.9007 709.8831)" style="fill:#E0E0E0;" width="14.382" height="34.784"/>
					</g>
					<g>
						<rect x="169.289" y="337.55" style="fill:#F5F5F5;" width="3.229" height="34.784"/>
						
							<rect x="154.907" y="337.55" transform="matrix(-1 -1.224647e-16 1.224647e-16 -1 324.1956 709.8831)" style="fill:#E0E0E0;" width="14.382" height="34.784"/>
					</g>
					<g>
						<rect x="165.436" y="337.55" style="fill:#F5F5F5;" width="3.229" height="34.784"/>
						
							<rect x="151.055" y="337.55" transform="matrix(-1 -1.224647e-16 1.224647e-16 -1 316.4906 709.8831)" style="fill:#E0E0E0;" width="14.382" height="34.784"/>
					</g>
					<g>
						<rect x="161.584" y="337.55" style="fill:#F5F5F5;" width="3.228" height="34.784"/>
						
							<rect x="147.202" y="337.55" transform="matrix(-1 -1.224647e-16 1.224647e-16 -1 308.7855 709.8831)" style="fill:#E0E0E0;" width="14.382" height="34.784"/>
					</g>
					<g>
						<rect x="157.731" y="337.55" style="fill:#F5F5F5;" width="3.228" height="34.784"/>
						
							<rect x="143.349" y="337.55" transform="matrix(-1 -1.224647e-16 1.224647e-16 -1 301.0805 709.8831)" style="fill:#E0E0E0;" width="14.382" height="34.784"/>
					</g>
					<g>
						<rect x="153.879" y="337.55" style="fill:#F5F5F5;" width="3.228" height="34.784"/>
						
							<rect x="139.497" y="337.55" transform="matrix(-1 -1.224647e-16 1.224647e-16 -1 293.3755 709.8831)" style="fill:#E0E0E0;" width="14.382" height="34.784"/>
					</g>
					<g>
						<rect x="150.026" y="337.55" style="fill:#F5F5F5;" width="3.229" height="34.784"/>
						
							<rect x="135.644" y="337.55" transform="matrix(-1 -1.224647e-16 1.224647e-16 -1 285.6704 709.8831)" style="fill:#E0E0E0;" width="14.382" height="34.784"/>
					</g>
					<g>
						<rect x="146.173" y="337.55" style="fill:#F5F5F5;" width="3.229" height="34.784"/>
						
							<rect x="131.792" y="337.55" transform="matrix(-1 -1.224647e-16 1.224647e-16 -1 277.9654 709.8831)" style="fill:#E0E0E0;" width="14.382" height="34.784"/>
					</g>
					<g>
						<rect x="142.321" y="337.55" style="fill:#F5F5F5;" width="3.228" height="34.784"/>
						
							<rect x="127.939" y="337.55" transform="matrix(-1 -1.224647e-16 1.224647e-16 -1 270.2603 709.8831)" style="fill:#E0E0E0;" width="14.382" height="34.784"/>
					</g>
					<g>
						<rect x="138.469" y="337.55" style="fill:#F5F5F5;" width="3.228" height="34.784"/>
						
							<rect x="124.087" y="337.55" transform="matrix(-1 -1.224647e-16 1.224647e-16 -1 262.5553 709.8831)" style="fill:#E0E0E0;" width="14.382" height="34.784"/>
					</g>
					<g>
						<rect x="134.616" y="337.55" style="fill:#F5F5F5;" width="3.228" height="34.784"/>
						
							<rect x="120.234" y="337.55" transform="matrix(-1 -1.224647e-16 1.224647e-16 -1 254.8503 709.8831)" style="fill:#E0E0E0;" width="14.382" height="34.784"/>
					</g>
					<g>
						<rect x="130.763" y="337.55" style="fill:#F5F5F5;" width="3.229" height="34.784"/>
						
							<rect x="116.382" y="337.55" transform="matrix(-1 -1.224647e-16 1.224647e-16 -1 247.1452 709.8831)" style="fill:#E0E0E0;" width="14.382" height="34.784"/>
					</g>
					<g>
						<rect x="126.911" y="337.55" style="fill:#F5F5F5;" width="3.229" height="34.784"/>
						
							<rect x="112.529" y="337.55" transform="matrix(-1 -1.224647e-16 1.224647e-16 -1 239.4402 709.8831)" style="fill:#E0E0E0;" width="14.382" height="34.784"/>
					</g>
				</g>
				<g>
					<rect x="108.444" y="139.333" style="fill:#F5F5F5;" width="33.319" height="8.991"/>
					
						<rect x="95.556" y="139.333" transform="matrix(-1 -1.224647e-16 1.224647e-16 -1 204 287.6571)" style="fill:#E0E0E0;" width="12.889" height="8.991"/>
					<rect x="107.145" y="126.083" style="fill:#F5F5F5;" width="33.319" height="6.361"/>
					
						<rect x="94.256" y="126.083" transform="matrix(-1 -1.224647e-16 1.224647e-16 -1 201.4005 258.5277)" style="fill:#E0E0E0;" width="12.889" height="6.361"/>
					<rect x="111.501" y="132.444" style="fill:#F0F0F0;" width="33.319" height="6.889"/>
					
						<rect x="98.612" y="132.444" transform="matrix(-1 -1.224647e-16 1.224647e-16 -1 210.1129 271.7777)" style="fill:#E0E0E0;" width="12.889" height="6.889"/>
				</g>
				<g>
					<rect x="200.381" y="251.338" style="fill:#F5F5F5;" width="31.305" height="8.991"/>
					
						<rect x="188.271" y="251.338" transform="matrix(-1 -1.224647e-16 1.224647e-16 -1 388.6528 511.6667)" style="fill:#E0E0E0;" width="12.11" height="8.991"/>
					<rect x="199.16" y="238.088" style="fill:#F5F5F5;" width="31.305" height="6.361"/>
					
						<rect x="187.05" y="238.088" transform="matrix(-1 -1.224647e-16 1.224647e-16 -1 386.2104 482.5373)" style="fill:#E0E0E0;" width="12.11" height="6.361"/>
					<rect x="203.253" y="244.449" style="fill:#F0F0F0;" width="31.305" height="6.889"/>
					
						<rect x="191.143" y="244.449" transform="matrix(-1 -1.224647e-16 1.224647e-16 -1 394.396 495.7873)" style="fill:#E0E0E0;" width="12.11" height="6.889"/>
				</g>
				<g>
					<rect x="110.643" y="311.304" style="fill:#F5F5F5;" width="31.305" height="5.027"/>
					
						<rect x="98.533" y="311.304" transform="matrix(-1 -1.224647e-16 1.224647e-16 -1 209.1766 627.6352)" style="fill:#E0E0E0;" width="12.11" height="5.027"/>
					<rect x="109.422" y="303.896" style="fill:#F5F5F5;" width="31.305" height="3.557"/>
					
						<rect x="97.312" y="303.896" transform="matrix(-1 -1.224647e-16 1.224647e-16 -1 206.7344 611.3486)" style="fill:#E0E0E0;" width="12.11" height="3.557"/>
					<rect x="113.515" y="307.453" style="fill:#F0F0F0;" width="31.305" height="3.852"/>
					
						<rect x="101.405" y="307.453" transform="matrix(-1 -1.224647e-16 1.224647e-16 -1 214.92 618.7569)" style="fill:#E0E0E0;" width="12.11" height="3.852"/>
				</g>
				<g>
					<rect x="243.514" y="197.968" style="fill:#F5F5F5;" width="36.158" height="6.358"/>
					
						<rect x="229.526" y="197.968" transform="matrix(-1 -1.224647e-16 1.224647e-16 -1 473.04 402.2946)" style="fill:#E0E0E0;" width="13.987" height="6.358"/>
					<rect x="242.103" y="188.598" style="fill:#F5F5F5;" width="36.158" height="4.498"/>
					
						<rect x="228.116" y="188.598" transform="matrix(-1 -1.224647e-16 1.224647e-16 -1 470.219 381.695)" style="fill:#E0E0E0;" width="13.987" height="4.498"/>
					<rect x="246.831" y="193.097" style="fill:#F0F0F0;" width="36.158" height="4.872"/>
					
						<rect x="232.843" y="193.097" transform="matrix(-1 -1.224647e-16 1.224647e-16 -1 479.6738 391.0651)" style="fill:#E0E0E0;" width="13.987" height="4.872"/>
				</g>
				<g>
					<rect x="291.408" y="229.111" style="fill:#FAFAFA;" width="2.209" height="31.218"/>
					
						<rect x="277.341" y="229.111" transform="matrix(-1 -1.224647e-16 1.224647e-16 -1 568.7493 489.4397)" style="fill:#E0E0E0;" width="14.067" height="31.218"/>
					<rect x="285.517" y="232.139" style="fill:#F5F5F5;" width="5.383" height="28.19"/>
					
						<rect x="271.451" y="232.139" transform="matrix(-1 -1.224647e-16 1.224647e-16 -1 556.9678 492.4675)" style="fill:#E0E0E0;" width="14.067" height="28.19"/>
					<rect x="279.6" y="230.417" style="fill:#F0F0F0;" width="5.383" height="29.912"/>
					
						<rect x="265.534" y="230.417" transform="matrix(-1 -1.224647e-16 1.224647e-16 -1 545.1337 490.7453)" style="fill:#E0E0E0;" width="14.067" height="29.912"/>
					<polygon style="fill:#FAFAFA;" points="273.722,232.389 279.105,232.389 274.973,260.329 269.59,260.329 					"/>
					<polygon style="fill:#E6E6E6;" points="273.722,232.389 259.655,232.389 255.523,260.329 269.59,260.329 					"/>
				</g>
				<g>
					<rect x="214.684" y="166.729" style="fill:#FAFAFA;" width="2.208" height="37.433"/>
					
						<rect x="200.625" y="166.729" transform="matrix(-1 -1.224647e-16 1.224647e-16 -1 415.3091 370.8908)" style="fill:#E0E0E0;" width="14.058" height="37.433"/>
					<rect x="208.796" y="170.359" style="fill:#F5F5F5;" width="5.38" height="33.802"/>
					
						<rect x="194.738" y="170.359" transform="matrix(-1 -1.224647e-16 1.224647e-16 -1 403.5346 374.5214)" style="fill:#E0E0E0;" width="14.058" height="33.802"/>
					<rect x="202.883" y="168.294" style="fill:#F0F0F0;" width="5.38" height="35.868"/>
					
						<rect x="188.824" y="168.294" transform="matrix(-1 -1.224647e-16 1.224647e-16 -1 391.7074 372.4563)" style="fill:#E0E0E0;" width="14.058" height="35.868"/>
					<polygon style="fill:#FAFAFA;" points="197.008,170.659 202.388,170.659 198.258,204.162 192.878,204.162 					"/>
					<polygon style="fill:#E6E6E6;" points="197.008,170.659 182.949,170.659 178.82,204.162 192.878,204.162 					"/>
				</g>
				<g>
					<rect x="211.13" y="279.536" style="fill:#FAFAFA;" width="2.208" height="37.433"/>
					
						<rect x="197.071" y="279.536" transform="matrix(-1 -1.224647e-16 1.224647e-16 -1 408.2009 596.5048)" style="fill:#E0E0E0;" width="14.058" height="37.433"/>
					<rect x="205.242" y="283.167" style="fill:#F5F5F5;" width="5.38" height="33.802"/>
					
						<rect x="191.184" y="283.167" transform="matrix(-1 -1.224647e-16 1.224647e-16 -1 396.4264 600.1354)" style="fill:#E0E0E0;" width="14.058" height="33.802"/>
					<rect x="199.329" y="281.101" style="fill:#F0F0F0;" width="5.38" height="35.868"/>
					
						<rect x="185.27" y="281.101" transform="matrix(-1 -1.224647e-16 1.224647e-16 -1 384.5992 598.0703)" style="fill:#E0E0E0;" width="14.058" height="35.868"/>
					<polygon style="fill:#FAFAFA;" points="193.454,283.466 198.833,283.466 194.704,316.969 189.324,316.969 					"/>
					<polygon style="fill:#E6E6E6;" points="193.454,283.466 179.395,283.466 175.266,316.969 189.324,316.969 					"/>
				</g>
			</g>
		</g>
		<g>
			<rect x="338.333" y="294.723" style="fill:#E0E0E0;" width="33.029" height="12.801"/>
			<rect x="338.333" y="307.523" style="fill:#E0E0E0;" width="7.276" height="74.875"/>
			<rect x="345.609" y="307.523" style="fill:#E6E6E6;" width="6.345" height="74.875"/>
			<rect x="377.059" y="307.523" style="fill:#E0E0E0;" width="7.276" height="74.875"/>
			<rect x="384.335" y="307.523" style="fill:#E6E6E6;" width="6.345" height="74.875"/>
			
				<rect x="371.363" y="294.723" transform="matrix(-1 -1.224647e-16 1.224647e-16 -1 787.7962 602.246)" style="fill:#F0F0F0;" width="45.071" height="12.801"/>
			<polygon style="fill:#E0E0E0;" points="371.363,307.523 364.087,307.523 383.896,382.398 391.171,382.398 			"/>
			<polygon style="fill:#F0F0F0;" points="371.363,307.523 377.707,307.523 397.516,382.398 391.171,382.398 			"/>
			<polygon style="fill:#E0E0E0;" points="410.089,307.523 402.813,307.523 422.622,382.398 429.897,382.398 			"/>
			<polygon style="fill:#F0F0F0;" points="410.089,307.523 416.433,307.523 436.242,382.398 429.897,382.398 			"/>
			<polygon style="fill:#F0F0F0;" points="377.902,323.461 418.465,323.461 417.622,320.084 377.059,320.084 			"/>
			<polygon style="fill:#F0F0F0;" points="381.767,338.952 422.33,338.952 421.488,335.575 380.925,335.575 			"/>
			<polygon style="fill:#F0F0F0;" points="385.633,354.443 426.195,354.443 425.353,351.066 384.79,351.066 			"/>
			<polygon style="fill:#F0F0F0;" points="389.498,369.934 430.061,369.934 429.218,366.557 388.655,366.557 			"/>
		</g>
		<g>
			<path style="fill:#E6E6E6;" d="M389.213,117.577c-5.434,0-9.854-2.898-9.854-6.461c0-3.668,6.568-6.46,9.854-6.46
				c3.287,0,9.855,2.793,9.855,6.46C399.067,114.678,394.646,117.577,389.213,117.577z M389.213,105.456
				c-2.981,0-9.054,2.62-9.054,5.66c0,3.121,4.061,5.66,9.054,5.66c4.992,0,9.054-2.539,9.054-5.66
				C398.266,108.076,392.194,105.456,389.213,105.456z"/>
			<rect x="346.77" y="110.333" style="fill:#F0F0F0;" width="84.885" height="127.755"/>
			
				<rect x="345.655" y="110.333" transform="matrix(-1 -1.224647e-16 1.224647e-16 -1 692.4252 348.4214)" style="fill:#E6E6E6;" width="1.115" height="127.755"/>
			<rect x="355.937" y="119.614" style="fill:#FAFAFA;" width="66.552" height="109.193"/>
			<rect x="421.433" y="119.614" style="fill:#E6E6E6;" width="1.056" height="109.193"/>
		</g>
	</g>
</g>
<g id="Background_Simple" style="display:none;">
	<g style="display:inline;">
		<path style="fill:#407BFF;" d="M422.687,188.366c-0.138,3.617-0.481,7.226-1.034,10.804
			c-4.757,30.796-25.414,62.873-55.443,73.825c-17.885,6.523-37.671,0.418-56.698,1.079c-23.934,0.832-46.759,12.975-67.889,23.086
			c-28.536,13.655-56.666,24.102-87.731,13.488c-25.829-8.825-47.852-30.094-52.274-57.627c-4.206-26.191-0.671-54.331,7.227-79.506
			c6.796-21.665,19.444-36.967,43.253-39.292c15.55-1.518,31.041,2.416,46.323,5.664c17.28,3.673,39.089,7.952,55.723-0.121
			c15.872-7.704,25.893-25.077,40.16-35.162c23.566-16.658,56.973-16.279,81.931-1.79
			C405.879,120.025,423.98,154.467,422.687,188.366z"/>
		<path style="opacity:0.9;fill:#FFFFFF;" d="M422.687,188.366c-0.138,3.617-0.481,7.226-1.034,10.804
			c-4.757,30.796-25.414,62.873-55.443,73.825c-17.885,6.523-37.671,0.418-56.698,1.079c-23.934,0.832-46.759,12.975-67.889,23.086
			c-28.536,13.655-56.666,24.102-87.731,13.488c-25.829-8.825-47.852-30.094-52.274-57.627c-4.206-26.191-0.671-54.331,7.227-79.506
			c6.796-21.665,19.444-36.967,43.253-39.292c15.55-1.518,31.041,2.416,46.323,5.664c17.28,3.673,39.089,7.952,55.723-0.121
			c15.872-7.704,25.893-25.077,40.16-35.162c23.566-16.658,56.973-16.279,81.931-1.79
			C405.879,120.025,423.98,154.467,422.687,188.366z"/>
	</g>
</g>
<g id="Shadow_1_">
	<ellipse id="_x3C_Path_x3E__164_" style="fill:#F5F5F5;" cx="250" cy="416.238" rx="193.889" ry="11.323"/>
</g>
<g id="Love">
	<g>
		<path style="fill:#407BFF;" d="M257.086,85.189c-3.648-1.915-8.157-0.51-10.072,3.138c-3.648-1.915-8.157-0.51-10.072,3.138
			c-1.915,3.648-0.51,8.157,3.138,10.072l13.21,6.934l6.934-13.21C262.139,91.613,260.734,87.104,257.086,85.189z"/>
		<path style="fill:#407BFF;" d="M244.111,114.762c-1.143-2.166-3.825-2.996-5.992-1.854c-1.143-2.166-3.825-2.996-5.992-1.854
			c-2.166,1.143-2.996,3.825-1.854,5.992l4.138,7.845l7.845-4.138C244.424,119.612,245.254,116.929,244.111,114.762z"/>
	</g>
</g>
<g id="Character_1_">
	<g>
		<path style="fill:#263238;" d="M196.063,128.427c-6.255,7.637-5.147,14.587-3.372,21.019c-7.73-4.655-14.376,5.81-12.246,9.981
			c-9.85,6.744-1.338,19.162,9.181,16.148c5.017,11.539,29.577,12.515,29.455,5.86c20.199,4.526,11.502-17.748,5.379-19.789
			c8.43-1.597,7.188-11.891,1.42-15.352c6.744-7.987,3.398-17.659-5.179-18.902C212.876,118.429,201.151,122.215,196.063,128.427z"
			/>
		<path style="fill:#7F3E3B;" d="M235.162,187.599c0.017,3.948,0.161,8.141,0.456,12.156c0.295,4.033,0.749,8.052,1.622,11.732
			c0.094,0.473,0.22,0.913,0.35,1.349l0.327,1.155c0.124,0.383,0.185,0.517,0.316,0.702c0.22,0.377,1.607,0.797,3.286,0.696
			c3.39-0.165,7.469-1.423,11.141-2.794l2.437,4.137c-0.958,0.738-1.854,1.338-2.824,1.943c-0.958,0.598-1.937,1.177-2.965,1.689
			c-2.052,1.038-4.234,1.936-6.755,2.468c-1.265,0.252-2.626,0.42-4.146,0.325c-1.502-0.109-3.235-0.502-4.861-1.521
			c-1.636-0.998-2.917-2.611-3.627-4.173l-0.252-0.574l-0.159-0.422l-0.317-0.846c-0.216-0.566-0.423-1.132-0.584-1.689
			c-1.416-4.491-2.122-8.908-2.611-13.309c-0.214-2.201-0.41-4.396-0.476-6.59c-0.073-2.215-0.137-4.343-0.052-6.656
			L235.162,187.599z"/>
		<g>
			<path style="fill:#407BFF;" d="M230.666,176.695c8.183,7.162,7.02,19.567,7.02,19.567l-15.652,2.672
				c0,0-3.907-12.807-1.689-17.256C222.66,177.035,226.061,172.664,230.666,176.695z"/>
			<path style="opacity:0.3;fill:#FFFFFF;" d="M230.666,176.695c8.183,7.162,7.02,19.567,7.02,19.567l-15.652,2.672
				c0,0-3.907-12.807-1.689-17.256C222.66,177.035,226.061,172.664,230.666,176.695z"/>
		</g>
		<path style="opacity:0.4;fill:#407BFF;" d="M226.29,188.16l-5.88,4.07c0.69,3.64,1.62,6.7,1.62,6.7l5.36-0.91
			C227.22,191.74,226.29,188.16,226.29,188.16z"/>
		<path style="fill:#7F3E3B;" d="M251.755,213.455l6.037-5.293l2.474,9.064c0,0-4.952,2.268-9.37-0.467L251.755,213.455z"/>
		<polygon style="fill:#7F3E3B;" points="265.69,207.803 266.272,214.875 260.266,217.226 257.792,208.162 		"/>
		<polygon style="fill:#7F3E3B;" points="167.567,408.572 176.374,409.421 182.419,388.749 173.612,387.901 		"/>
		<polygon style="fill:#7F3E3B;" points="111.515,373.739 117.622,380.277 132.688,365.757 126.581,359.218 		"/>
		<path style="fill:#263238;" d="M119.072,380.253l-4.313-9.134c-0.157-0.332-0.515-0.493-0.862-0.387l-7.718,2.371
			c-0.8,0.246-1.206,1.226-0.83,1.986c1.558,3.159,2.47,4.605,4.367,8.622c1.167,2.471,3.384,8.109,4.996,11.521
			c1.576,3.338,5.072,2.001,4.706,0.436c-1.638-7.018-0.993-10.823-0.204-13.821C119.356,381.307,119.302,380.739,119.072,380.253z"
			/>
		<path style="fill:#263238;" d="M177.298,406.737h-10.666c-0.388,0-0.738,0.27-0.842,0.648l-2.319,8.439
			c-0.241,0.875,0.404,1.68,1.301,1.688c3.758,0.034,5.54,0.017,10.231,0.017c2.886,0,10.351,0,14.336,0
			c3.897,0,4.713-3.94,3.1-4.297c-7.231-1.6-11.399-3.807-13.63-5.912C178.406,406.941,177.866,406.737,177.298,406.737z"/>
		<polygon style="opacity:0.2;" points="182.416,388.755 179.302,399.41 170.242,399.41 173.605,387.906 		"/>
		<polygon style="opacity:0.2;" points="126.575,359.221 132.685,365.762 124.916,373.244 118.806,366.702 		"/>
		<g>
			<path style="fill:#407BFF;" d="M228.148,175.246c0,0,3.782,1.969-12.679,52.82c-14.323-2.192-29.125-4.457-36.095-5.524
				c2.854-14.598,4.257-23.654,1.85-54.876c0,0,7.814-0.488,15.636,0.326c6.119,0.637,11.125,1.204,16.39,2.509
				C220.192,172.221,228.148,175.246,228.148,175.246z"/>
			<path style="opacity:0.3;fill:#FFFFFF;" d="M228.148,175.246c0,0,3.782,1.969-12.679,52.82
				c-14.323-2.192-29.125-4.457-36.095-5.524c2.854-14.598,4.257-23.654,1.85-54.876c0,0,7.814-0.488,15.636,0.326
				c6.119,0.637,11.125,1.204,16.39,2.509C220.192,172.221,228.148,175.246,228.148,175.246z"/>
		</g>
		<path style="fill:#7F3E3B;" d="M201.309,149.786c0.227,5.432-0.22,15.252-4.448,18.207c0,0,8.434,10.745,12.325,21.488
			c4.929-6.147,4.065-18.979,4.065-18.979c-5.666-2.304-4.846-6.644-3.195-10.585L201.309,149.786z"/>
		<path style="opacity:0.2;" d="M204.874,153.919l5.178,5.992c-0.394,0.932-0.736,1.886-0.951,2.832
			c-2.197-0.669-5.275-3.199-5.153-5.588C204.009,155.964,204.599,154.436,204.874,153.919z"/>
		<path style="fill:#7F3E3B;" d="M197.117,141.047c1.684,8.763,2.21,12.508,7.257,16.465c7.592,5.952,17.987,1.967,18.955-7.122
			c0.871-8.181-2.029-21.137-11.129-23.534C203.234,124.493,195.433,132.284,197.117,141.047z"/>
		<path style="fill:#263238;" d="M195.235,132.509c-3.455,5.666,22.194-1.183,23.846-3.55c-2.903-3.884-7.932-4.733-13.02-3.609
			C200.973,126.475,196.714,130.083,195.235,132.509z"/>
		<path style="fill:#263238;" d="M201.861,130.675c2.699,3.401,4.766,12.757-3.326,17.294c-5.075-5.048-4.956-7.828-5.075-10.549
			C193.342,134.698,198.903,126.948,201.861,130.675z"/>
		<path style="fill:#7F3E3B;" d="M195.926,148.307c0.74,1.695,2.193,2.891,3.617,3.424c2.142,0.801,3.407-1.068,2.975-3.191
			c-0.389-1.911-1.972-4.631-4.201-4.521C196.122,144.129,195.08,146.368,195.926,148.307z"/>
		<path style="fill:#263238;" d="M215.469,228.066c0,0,8.714,55.138-2,92.904c-7.176,25.294-30.383,75.818-30.383,75.818
			l-15.457-1.415c0,0,18.563-53.401,23.067-74.586c7.704-36.238-1.657-96.766-1.657-96.766L215.469,228.066z"/>
		<path style="opacity:0.2;" d="M200.586,238.107l-8.544,11.702c1.138,12.791,2.058,28.756,1.557,44.028
			C205.768,275.06,202.329,248.585,200.586,238.107z"/>
		<polygon style="fill:#407BFF;" points="185.301,397.125 166.132,396.636 167.241,390.747 186.799,391.674 		"/>
		<path style="fill:#263238;" d="M207.571,226.967c0,0-13.148,55.07-28.52,86.732c-12.416,25.574-50.476,59.384-50.476,59.384
			l-8.025-9.432c0,0,26.404-36.236,35.65-53.233c22.67-41.677,9.147-73.536,23.175-87.876L207.571,226.967z"/>
		<polygon style="fill:#407BFF;" points="129.368,374.327 118.972,362.77 122.986,357.999 133.993,370.529 		"/>
		<path style="fill:#407BFF;" d="M179.158,220.342l-2.122,2.982c-0.165,0.231,0.093,0.532,0.51,0.596l37.854,5.793
			c0.325,0.05,0.619-0.068,0.671-0.27l0.82-3.181c0.057-0.22-0.196-0.453-0.552-0.508l-36.551-5.593
			C179.519,220.12,179.264,220.193,179.158,220.342z"/>
		<path style="fill:#263238;" d="M183.442,225.18l-0.979-0.15c-0.195-0.03-0.328-0.153-0.296-0.274l1.102-4.127
			c0.032-0.121,0.218-0.195,0.413-0.165l0.979,0.15c0.195,0.03,0.328,0.153,0.296,0.274l-1.101,4.127
			C183.822,225.135,183.637,225.21,183.442,225.18z"/>
		<path style="fill:#263238;" d="M212.595,229.641l-0.979-0.15c-0.195-0.03-0.328-0.153-0.296-0.274l1.102-4.127
			c0.032-0.121,0.218-0.195,0.413-0.165l0.979,0.15c0.195,0.03,0.328,0.153,0.296,0.274l-1.102,4.127
			C212.976,229.597,212.79,229.671,212.595,229.641z"/>
		<path style="fill:#263238;" d="M198.018,227.411l-0.979-0.15c-0.195-0.03-0.328-0.153-0.296-0.274l1.101-4.127
			c0.032-0.121,0.218-0.195,0.413-0.165l0.979,0.15c0.195,0.03,0.328,0.153,0.296,0.274l-1.102,4.127
			C198.399,227.366,198.213,227.441,198.018,227.411z"/>
		<path style="fill:#263238;" d="M211.721,141.709c0.093,0.719,0.549,1.253,1.02,1.192c0.47-0.061,0.776-0.693,0.683-1.412
			c-0.093-0.719-0.549-1.253-1.02-1.192C211.933,140.358,211.628,140.99,211.721,141.709z"/>
		<path style="fill:#263238;" d="M219.85,140.659c0.093,0.719,0.549,1.253,1.02,1.192c0.47-0.061,0.776-0.693,0.683-1.412
			c-0.093-0.719-0.549-1.253-1.02-1.192C220.063,139.307,219.757,139.939,219.85,140.659z"/>
		<path style="fill:#263238;" d="M220.33,139.313l1.663-0.721C221.993,138.592,221.281,140.056,220.33,139.313z"/>
		<path style="fill:#630F0F;" d="M216.975,142.247c0,0,1.621,2.939,3.157,4.259c-0.835,1.009-2.502,0.813-2.502,0.813
			L216.975,142.247z"/>
		<path style="fill:#263238;" d="M214.125,150.487c-2.514-0.165-3.879-1.728-3.944-1.805c-0.063-0.074-0.055-0.186,0.02-0.25
			c0.073-0.063,0.185-0.055,0.25,0.02c0.018,0.02,1.801,2.05,4.965,1.639c0.101-0.015,0.186,0.056,0.198,0.153
			c0.013,0.097-0.056,0.186-0.153,0.198C214.984,150.504,214.538,150.515,214.125,150.487z"/>
		<path style="fill:#263238;" d="M207.645,138.048c-0.062-0.004-0.124-0.025-0.179-0.063c-0.16-0.112-0.2-0.332-0.087-0.493
			c1.326-1.9,3.254-1.861,3.336-1.859c0.205,0.021,0.347,0.169,0.342,0.364c-0.005,0.195-0.168,0.349-0.363,0.344
			c-0.066-0.002-1.634-0.02-2.734,1.556C207.885,138.003,207.765,138.056,207.645,138.048z"/>
		<path style="fill:#263238;" d="M222.865,135.632c-0.058-0.004-0.116-0.022-0.169-0.056c-1.628-1.054-3.104-0.418-3.118-0.412
			c-0.18,0.08-0.388-0.001-0.467-0.18c-0.079-0.179,0.001-0.388,0.18-0.467c0.075-0.034,1.846-0.797,3.79,0.464
			c0.164,0.107,0.211,0.326,0.105,0.49C223.114,135.583,222.989,135.64,222.865,135.632z"/>
		<path style="fill:#7F3E3B;" d="M185.526,181.599c-1.495,2.166-3.085,4.391-4.574,6.619c-1.533,2.212-3.041,4.435-4.489,6.678
			c-1.424,2.252-2.861,4.484-4.132,6.734c-0.639,1.124-1.253,2.237-1.784,3.329l-0.381,0.81l-0.096,0.203l-0.048,0.101
			c-0.019,0.04-0.037,0.082-0.007,0.007c0.033-0.088,0.056-0.18,0.067-0.272c0.025-0.11,0.048-0.242,0.048-0.364
			c0.046-0.534-0.143-1.156-0.339-1.452c-0.21-0.323-0.302-0.37-0.316-0.374c-0.01,0.023,0.296,0.266,0.694,0.467
			c0.404,0.212,0.907,0.423,1.441,0.62c1.073,0.396,2.282,0.735,3.519,1.038c2.48,0.632,5.102,1.092,7.738,1.539
			c5.281,0.841,10.709,1.543,16.08,2.162l-0.077,4.801c-5.595,0.361-11.13,0.442-16.76,0.142c-2.817-0.139-5.638-0.402-8.54-0.834
			c-1.452-0.237-2.918-0.52-4.461-0.95c-0.773-0.218-1.564-0.468-2.411-0.82c-0.848-0.364-1.759-0.785-2.819-1.647
			c-0.528-0.452-1.111-0.998-1.645-1.928c-0.53-0.893-0.894-2.204-0.796-3.423c0.025-0.292,0.063-0.594,0.119-0.873
			c0.061-0.257,0.133-0.513,0.215-0.765l0.082-0.233l0.052-0.136l0.103-0.272l0.416-1.086c0.573-1.418,1.172-2.767,1.824-4.063
			c1.3-2.595,2.657-5.087,4.12-7.498c1.458-2.409,2.949-4.779,4.485-7.114c1.584-2.315,3.123-4.597,4.848-6.872L185.526,181.599z"/>
		<path style="fill:#7F3E3B;" d="M196.236,210.389l7.326-3.286l-0.252,7.909c0,0-5.068,1.469-7.852-1.025L196.236,210.389z"/>
		<polygon style="fill:#7F3E3B;" points="207.841,207.947 206.318,214.878 203.31,215.013 203.562,207.104 		"/>
		<path style="opacity:0.4;fill:#407BFF;" d="M186.381,184.424l-4.021,3.306c0.09,2.98,0.11,5.68,0.08,8.16
			C184.875,194.25,186.75,187.625,186.381,184.424z"/>
		<g>
			<path style="fill:#407BFF;" d="M181.224,167.666c-4.501,0.495-11.576,12.849-11.576,12.849l12.514,12.857
				c0,0,7.599-11.12,7.504-16.951C189.585,171.473,186.958,167.036,181.224,167.666z"/>
			<path style="opacity:0.3;fill:#FFFFFF;" d="M181.224,167.666c-4.501,0.495-11.576,12.849-11.576,12.849l12.514,12.857
				c0,0,7.599-11.12,7.504-16.951C189.585,171.473,186.958,167.036,181.224,167.666z"/>
		</g>
		<path style="fill:#407BFF;" d="M120.478,385.103c-0.116-0.008-0.23-0.035-0.342-0.081c-1.041-0.429-1.61-2.445-1.856-3.608
			c-0.015-0.069,0.013-0.14,0.071-0.181c0.058-0.04,0.134-0.043,0.195-0.007c0.313,0.191,3.057,1.898,3.076,3.027
			c0.003,0.173-0.055,0.418-0.344,0.608C121.005,385.039,120.738,385.12,120.478,385.103z M118.72,381.758
			c0.39,1.608,0.959,2.694,1.55,2.937c0.256,0.105,0.52,0.062,0.811-0.13c0.168-0.11,0.186-0.227,0.184-0.306
			C121.255,383.566,119.659,382.375,118.72,381.758z"/>
		<path style="fill:#407BFF;" d="M121.099,382.36c-1.009-0.066-2.226-0.469-2.749-0.838c-0.051-0.036-0.08-0.097-0.074-0.16
			c0.006-0.063,0.044-0.118,0.101-0.145c0.098-0.047,2.432-1.137,3.616-0.626c0.309,0.132,0.519,0.358,0.622,0.672
			c0.162,0.488-0.067,0.75-0.218,0.862C122.112,382.336,121.634,382.395,121.099,382.36z M118.841,381.402
			c0.936,0.474,2.788,0.849,3.344,0.438c0.092-0.069,0.187-0.184,0.093-0.466c-0.071-0.216-0.211-0.366-0.425-0.458
			C121.046,380.568,119.502,381.129,118.841,381.402z"/>
		<path style="fill:#407BFF;" d="M182.031,408.462c-1.025,0-2.139-0.198-2.912-0.37c-0.074-0.017-0.129-0.078-0.138-0.153
			c-0.008-0.075,0.032-0.148,0.101-0.18c0.439-0.206,4.308-1.994,5.283-1.335c0.125,0.084,0.269,0.247,0.252,0.548
			c-0.024,0.416-0.201,0.752-0.527,0.998C183.607,408.336,182.848,408.462,182.031,408.462z M179.727,407.856
			c1.149,0.215,3.274,0.495,4.149-0.167c0.243-0.184,0.369-0.424,0.387-0.736c0.008-0.144-0.048-0.201-0.097-0.234
			C183.622,406.348,181.334,407.148,179.727,407.856z"/>
		<path style="fill:#407BFF;" d="M179.158,408.097c-0.041,0-0.082-0.014-0.114-0.042c-0.05-0.043-0.073-0.11-0.058-0.175
			c0.037-0.163,0.915-3.978,3.015-3.735c0.526,0.063,0.67,0.324,0.698,0.531c0.131,0.972-2.309,2.93-3.473,3.407
			C179.203,408.092,179.18,408.097,179.158,408.097z M181.81,404.488c-1.342,0-2.124,2.221-2.383,3.11
			c1.26-0.66,3.004-2.252,2.92-2.873c-0.006-0.046-0.025-0.184-0.39-0.228C181.908,404.491,181.858,404.488,181.81,404.488z"/>
		<path style="fill:#263238;" d="M212.201,140.364l1.663-0.721C213.864,139.643,213.152,141.106,212.201,140.364z"/>
	</g>
</g>
<g id="Book">
	<g>
		<g>
			<path style="fill:#407BFF;" d="M270.167,125.062l108.532,15.598c2.186,0.314,3.704,2.341,3.389,4.527l-39.07,271.858
				c-0.314,2.186-2.341,3.703-4.527,3.389l-108.532-15.598c-2.186-0.314-3.703-2.341-3.389-4.527l39.07-271.858
				C265.954,126.265,267.98,124.748,270.167,125.062z"/>
			<path style="opacity:0.2;" d="M270.167,125.062l108.532,15.598c2.186,0.314,3.704,2.341,3.389,4.527l-39.07,271.858
				c-0.314,2.186-2.341,3.703-4.527,3.389l-108.532-15.598c-2.186-0.314-3.703-2.341-3.389-4.527l39.07-271.858
				C265.954,126.265,267.98,124.748,270.167,125.062z"/>
		</g>
		<path style="opacity:0.3;" d="M378.188,140.586l0.511,0.073c2.186,0.314,3.704,2.341,3.389,4.527l-39.07,271.858
			c-0.314,2.186-2.341,3.703-4.527,3.389l-0.511-0.073c-2.186-0.314-3.704-2.341-3.389-4.527l39.07-271.858
			C373.975,141.789,376.001,140.272,378.188,140.586z"/>
		
			<rect x="253.998" y="137.66" transform="matrix(0.9898 0.1423 -0.1423 0.9898 41.9585 -40.8144)" style="fill:#FFFFFF;" width="104.874" height="270.782"/>
		<polygon style="opacity:0.2;fill:#407BFF;" points="273.791,131.577 374.79,146.092 336.493,412.57 235.272,399.605 		"/>
		<polygon style="fill:#FFFFFF;" points="273.791,131.577 372.761,142.524 334.242,410.552 235.272,399.605 		"/>
		<polygon style="opacity:0.2;fill:#407BFF;" points="273.791,131.577 370.016,142.13 330.841,408.825 235.272,399.605 		"/>
		<polygon style="fill:#FFFFFF;" points="273.791,131.577 369.048,140.706 329.547,407.401 235.272,399.605 		"/>
		<polygon style="opacity:0.2;fill:#407BFF;" points="273.791,131.577 365.181,140.335 326.401,405.711 235.272,399.605 		"/>
		<polygon style="fill:#FFFFFF;" points="273.791,131.577 362.224,139.236 323,404.636 235.272,399.605 		"/>
		<polygon style="opacity:0.2;fill:#407BFF;" points="273.791,131.577 355.865,138.686 316.641,404.272 235.272,399.605 		"/>
		
			<rect x="297.016" y="119.404" transform="matrix(0.0679 -0.9977 0.9977 0.0679 154.9219 411.216)" style="fill:#407BFF;" width="1.065" height="6.576"/>
		
			<rect x="316.272" y="114.284" transform="matrix(0.0679 -0.9977 0.9977 0.0679 171.5625 431.6506)" style="fill:#407BFF;" width="1.065" height="19.44"/>
		<path style="fill:#407BFF;" d="M348.473,129.363l-86.702-5.906c-2.97-0.202-5.594,1.919-6.017,4.866l-38.585,268.482
			c-0.471,3.275,1.943,6.259,5.244,6.484l86.702,5.906c2.97,0.202,5.594-1.919,6.017-4.866l38.585-268.482
			C354.187,132.572,351.774,129.588,348.473,129.363z"/>
		<path style="opacity:0.2;fill:#FFFFFF;" d="M302.942,400.907c-0.08,0-0.16-0.002-0.24-0.008l-77.088-5.251
			c-0.988-0.067-1.912-0.548-2.535-1.317c-0.622-0.771-0.899-1.773-0.758-2.754l37.214-258.944c0.264-1.839,1.917-3.181,3.777-3.055
			l77.088,5.251c0.988,0.067,1.912,0.547,2.535,1.317c0.622,0.77,0.899,1.774,0.758,2.754l-37.214,258.944
			C306.227,399.603,304.698,400.907,302.942,400.907z M263.071,130.635c-1.231,0-2.305,0.915-2.482,2.15l-37.214,258.945
			c-0.1,0.697,0.089,1.384,0.532,1.932c0.443,0.549,1.075,0.877,1.779,0.925l77.088,5.251c1.309,0.088,2.466-0.854,2.651-2.145
			l37.214-258.943c0.1-0.698-0.089-1.384-0.532-1.933c-0.443-0.548-1.075-0.877-1.779-0.925l-77.088-5.251
			C263.184,130.637,263.127,130.635,263.071,130.635z"/>
	</g>
</g>
</svg>
